<svg width="70" height="70" viewBox="0 0 70 70" fill="none" xmlns="http://www.w3.org/2000/svg">
<path d="M67.066 20.7632L38.3859 0.980851C36.5188 -0.308396 33.4812 -0.308396 31.6141 0.980851L2.93395 20.7632C1.2373 21.9415 0 24.222 0 26.1974V64.8055C0 67.3008 2.17083 69.3317 4.83806 69.3317H65.1545C67.8292 69.3317 70 67.3008 70 64.8055V26.1974C70 24.222 68.7701 21.9415 67.066 20.7632ZM4.83806 64.8055V26.1974C4.83806 25.6637 5.34928 24.7279 5.80123 24.4091L34.4814 4.62679C34.5406 4.5852 34.7259 4.51588 34.9926 4.51588C35.2593 4.51588 35.4445 4.5852 35.5038 4.62679L64.184 24.4091C64.6433 24.7279 65.1471 25.6568 65.1471 26.1974L65.1545 64.8055H4.83806ZM25.5091 26.544H31.8438C32.2587 26.544 32.5995 26.8628 32.5995 27.251V33.1774C32.5995 33.5655 32.9403 33.8844 33.3552 33.8844H38.66C39.0749 33.8844 39.4158 33.5655 39.4158 33.1774V27.251C39.4158 26.8628 39.7492 26.544 40.1715 26.544H46.4987C46.921 26.544 47.2544 26.2251 47.2544 25.837V20.8741C47.2544 20.4859 46.921 20.1671 46.4987 20.1671H40.1715C39.7492 20.1671 39.4083 19.8551 39.4083 19.467V13.5337C39.4083 13.1386 39.0675 12.8267 38.6526 12.8267H33.3478C32.9329 12.8267 32.5921 13.1386 32.5921 13.5337V19.4601C32.5921 19.8482 32.2513 20.1601 31.8364 20.1601H25.5017C25.0868 20.1601 24.746 20.479 24.746 20.8671V25.83C24.7534 26.2251 25.0868 26.544 25.5091 26.544ZM58.5013 41.0099C57.5974 41.0099 56.8565 41.6268 56.7083 42.4239C56.6787 42.4239 56.6787 42.7081 56.6787 42.7081V51.109H54.0559V50.1178C54.0559 49.5771 52.9742 49.1266 51.6332 49.1266H19.5227L19.4412 49.0365C18.3076 47.7126 16.5739 46.9778 14.9291 46.9293V37.1421C14.9291 35.8945 13.84 34.8825 12.5064 34.8825C11.1727 34.8825 10.091 35.8945 10.091 37.1421V61.118C10.091 62.3656 11.1727 63.3776 12.5064 63.3776C13.84 63.3776 14.9291 62.3656 14.9291 61.118V54.6995H17.4555V56.0026C17.4555 56.7234 18.4113 57.7978 19.7079 58.1097C25.3609 59.4614 35.9706 58.6504 39.2379 57.3057C41.9052 56.2036 48.1954 56.6611 51.6628 57.0215C52.9964 57.1532 54.0633 56.7234 54.0633 56.0095V54.7064H56.6861V61.1249C56.6861 62.0606 57.5011 62.8231 58.5087 62.8231C59.5089 62.8231 60.3239 62.0606 60.3239 61.1249V42.7081C60.3239 42.7081 60.3239 42.4239 60.2942 42.4239C60.1387 41.6199 59.3978 41.0099 58.5013 41.0099Z" fill="white" fill-opacity="0.8"/>
</svg>
