<svg width="44" height="51" viewBox="0 0 44 51" fill="none" xmlns="http://www.w3.org/2000/svg">
<path d="M27.4757 3.45202L28.2184 3.92954C28.2184 3.92957 28.2185 3.9296 28.2185 3.92963C29.64 4.84352 30.0523 6.73815 29.138 8.16129C28.2906 9.48097 26.4227 10.0587 24.9052 9.08072C24.9046 9.08033 24.904 9.07994 24.9034 9.07954L15.1477 2.80738C13.3501 1.87672 11.5458 1.48797 9.75432 1.95362L9.75431 1.95362C5.90793 2.95334 2.7946 6.1257 1.84908 10.0089L27.4757 3.45202ZM27.4757 3.45202C29.612 2.08085 31.819 1.38856 33.995 1.9537L34.3721 0.501859L33.9951 1.9537C37.841 2.95244 40.9544 6.12544 41.9 10.0089C42.7807 13.6282 41.9364 17.0002 40.0499 19.5451L40.0491 19.5462C37.5399 22.9373 36.5829 26.8656 36.2175 30.7821C35.7894 35.3602 35.2187 39.8759 34.2042 44.2888L34.2041 44.289L33.4425 47.6041C33.2866 48.2817 32.6884 48.7548 32.0069 48.7548C31.3354 48.7548 30.7432 48.2952 30.5776 47.6306C30.5776 47.6306 30.5776 47.6306 30.5776 47.6305L27.2114 34.113L25.859 34.4498L27.2114 34.113C26.6005 31.6598 24.4012 29.9325 21.8731 29.9325C19.3454 29.9325 17.1458 31.6584 16.5347 34.113C16.5347 34.1131 16.5347 34.1131 16.5347 34.1132L13.1685 47.6305L27.4757 3.45202ZM3.69698 19.5461L3.69703 19.5462C6.20636 22.9374 7.16335 26.8668 7.52869 30.7824L6.03518 30.9218L7.5287 30.7824C7.95578 35.36 8.5274 39.8748 9.54198 44.2889L9.54202 44.289L10.3037 47.6041C10.3037 47.6042 10.3037 47.6043 10.3037 47.6045C10.4597 48.2819 11.0579 48.7548 11.7393 48.7548C12.4107 48.7548 13.0029 48.2952 13.1685 47.6306L3.69698 19.5461ZM3.69698 19.5461C1.81256 16.9997 0.968447 13.6272 1.84905 10.0091L3.69698 19.5461Z" stroke="white" stroke-width="3"/>
</svg>
