<svg width="36" height="51" viewBox="0 0 36 51" fill="none" xmlns="http://www.w3.org/2000/svg">
<path d="M29.715 3.75988H23.065V2.62488C23.065 1.31988 22.005 0.254883 20.69 0.254883H15.29C13.98 0.254883 12.92 1.31488 12.92 2.62488V3.75988H6.27005C3.25505 3.75988 0.800049 6.20988 0.800049 9.22987V44.7898C0.800049 47.8048 3.25505 50.2598 6.27005 50.2598H29.715C32.73 50.2598 35.1851 47.8048 35.1851 44.7898V9.22487C35.1851 6.20988 32.73 3.75988 29.715 3.75988ZM17.995 1.32988C18.65 1.32988 19.18 1.85488 19.18 2.51488C19.18 3.16488 18.655 3.69988 17.995 3.69988C17.34 3.69988 16.81 3.16988 16.81 2.51488C16.81 1.85488 17.34 1.32988 17.995 1.32988ZM11.59 7.11487H24.3951V12.1099H11.59V7.11487ZM29.715 47.1248H6.27005C4.97505 47.1248 3.92505 46.0748 3.92505 44.7848V9.22487C3.92505 7.93487 4.97505 6.87988 6.27005 6.87988H8.50505V12.4649C8.50505 13.9699 9.73005 15.1949 11.235 15.1949H24.75C26.255 15.1949 27.48 13.9699 27.48 12.4649V6.87988H29.715C31.005 6.87988 32.06 7.93487 32.06 9.22487V44.7848C32.06 46.0748 31.01 47.1248 29.715 47.1248ZM12.595 20.4499L12.045 21.0999C11.865 20.6299 11.41 20.2949 10.87 20.2949H7.23505C6.53505 20.2949 5.97005 20.8599 5.97005 21.5599V25.5699C5.97005 26.2649 6.53505 26.8349 7.23505 26.8349H10.87C11.565 26.8349 12.135 26.2649 12.135 25.5699V23.4249L13.79 21.4499C14.065 21.1199 14.025 20.6249 13.695 20.3499C13.365 20.0749 12.875 20.1199 12.595 20.4499ZM11.3 25.5699C11.295 25.7999 11.105 25.9899 10.875 25.9899H7.24005C7.00505 25.9899 6.81505 25.7999 6.81505 25.5699V21.5599C6.81505 21.3299 7.00505 21.1399 7.24005 21.1399H10.875C11.105 21.1399 11.295 21.3299 11.295 21.5599V21.9999L10.245 23.2549C9.96505 23.5849 9.48505 23.6149 9.17005 23.3199L8.52005 22.7149C8.21005 22.4199 7.71005 22.4399 7.41505 22.7549C7.12005 23.0699 7.14505 23.5649 7.45505 23.8599L9.28005 25.5549C9.42505 25.6899 9.61005 25.7599 9.81005 25.7599H9.86005C10.075 25.7449 10.27 25.6449 10.405 25.4849L11.295 24.4249L11.3 25.5699ZM12.595 28.9499L11.99 29.6698C11.78 29.2598 11.36 28.9848 10.875 28.9848H7.24005C6.54005 28.9848 5.97505 29.5548 5.97505 30.2498V34.2548C5.97505 34.9498 6.54005 35.5198 7.24005 35.5198H10.875C11.57 35.5198 12.14 34.9498 12.14 34.2548V31.9298L13.795 29.9498C14.07 29.6199 14.03 29.1248 13.7 28.8498C13.365 28.5749 12.875 28.6199 12.595 28.9499ZM11.3 34.2548C11.295 34.4848 11.105 34.6748 10.875 34.6748H7.24005C7.00505 34.6748 6.81505 34.4848 6.81505 34.2548V30.2448C6.81505 30.0148 7.00505 29.8198 7.24005 29.8198H10.875C11.105 29.8198 11.295 30.0148 11.295 30.2448V30.4948L10.245 31.7548C9.96505 32.0848 9.48505 32.1148 9.17005 31.8198L8.52005 31.2198C8.21005 30.9248 7.71005 30.9448 7.41505 31.2548C7.12005 31.5748 7.14505 32.0648 7.45505 32.3648L9.28005 34.0598C9.42505 34.1948 9.61005 34.2698 9.81005 34.2698H9.86005C10.075 34.2548 10.27 34.1548 10.405 33.9948L11.295 32.9348L11.3 34.2548ZM12.595 37.4898L11.97 38.2398C11.75 37.8598 11.345 37.5948 10.875 37.5948H7.24005C6.54005 37.5948 5.97505 38.1648 5.97505 38.8648V42.8698C5.97505 43.5698 6.54005 44.1398 7.24005 44.1398H10.875C11.57 44.1398 12.14 43.5698 12.14 42.8698V40.4748L13.795 38.4998C14.07 38.1648 14.03 37.6748 13.7 37.3948C13.365 37.1148 12.875 37.1598 12.595 37.4898ZM11.3 42.8648C11.295 43.0998 11.105 43.2898 10.875 43.2898H7.24005C7.00505 43.2898 6.81505 43.0998 6.81505 42.8648V38.8598C6.81505 38.6248 7.00505 38.4348 7.24005 38.4348H10.875C11.105 38.4348 11.295 38.6248 11.295 38.8598V39.0398L10.245 40.2948C9.96505 40.6248 9.48505 40.6548 9.17005 40.3598L8.52005 39.7598C8.21005 39.4598 7.71005 39.4848 7.41505 39.7998C7.12005 40.1148 7.14505 40.6098 7.45505 40.9048L9.28005 42.5998C9.42505 42.7348 9.61005 42.8098 9.81005 42.8098C9.82505 42.8098 9.84005 42.8098 9.86005 42.8048C10.075 42.7948 10.27 42.6948 10.405 42.5298L11.295 41.4698L11.3 42.8648ZM29.475 23.0299H16.845C16.415 23.0299 16.065 23.3799 16.065 23.8149C16.065 24.2449 16.415 24.5949 16.845 24.5949H29.48C29.91 24.5949 30.265 24.2499 30.265 23.8149C30.265 23.3799 29.91 23.0299 29.475 23.0299ZM29.475 30.6898H16.845C16.415 30.6898 16.065 31.0348 16.065 31.4748C16.065 31.9048 16.415 32.2548 16.845 32.2548H29.48C29.91 32.2548 30.265 31.9048 30.265 31.4748C30.26 31.0348 29.91 30.6898 29.475 30.6898ZM29.475 38.3398H16.845C16.415 38.3398 16.065 38.6898 16.065 39.1248C16.065 39.5598 16.415 39.9098 16.845 39.9098H29.48C29.91 39.9098 30.265 39.5598 30.265 39.1248C30.26 38.6898 29.91 38.3398 29.475 38.3398Z" fill="white"/>
</svg>
