<svg width="44" height="51" viewBox="0 0 44 51" fill="none" xmlns="http://www.w3.org/2000/svg">
<path d="M32.95 32.215C33.885 34.87 33.005 37.04 31.44 39.045C31.16 39.405 30.585 39.76 31.03 40.325C32.6 42.325 32.79 44.785 33.415 47.11C33.62 47.875 34.17 48.515 33.38 49.205C32.895 49.63 32.355 49.725 31.82 49.315C31.02 48.695 31.35 48.025 31.615 47.225C32.98 43.07 29.145 38.69 24.905 39.535C23.805 39.755 22.645 39.885 21.915 40.98C21.56 41.505 20.955 41.57 20.385 41.2C19.93 40.905 19.695 40.485 19.75 39.93C19.805 39.375 20.13 38.84 20.64 38.875C23.38 39.055 26.095 37.39 28.835 38.73C29.705 39.155 30.12 38.67 30.595 38.065C33.17 34.785 32.475 32 28.27 29.84C30.9 27.77 32.515 25.305 33.34 22.325C33.45 21.92 33.55 21.535 33.985 21.28C36.2 19.99 36.335 17.93 35.58 15.87C35.13 14.645 35.25 13.63 35.405 12.42C35.84 8.99997 35.32 5.18497 32.355 3.59497C29.675 2.16497 26.81 0.284971 23.44 0.254971C20.395 0.224971 17.47 0.829972 14.645 1.89997C10.21 3.57497 7.965 6.93497 8.22 11.685C8.31 13.375 8.515 14.945 7.935 16.665C7.385 18.295 7.77 20.08 9.465 21.215C9.735 21.395 10.01 21.715 10.09 22.02C10.935 25.235 12.685 27.865 15.465 30.04C14.665 30.37 14.065 30.545 13.535 30.845C11.52 31.975 11.065 33.875 11.125 35.98C11.17 37.58 11.005 39.155 13.265 39.735C14.98 40.18 15.485 42.125 14.71 43.6C13.85 45.235 11.89 45.82 10.305 44.91C8.745 44.02 8.335 42.23 9.295 40.665C9.645 40.09 10.49 39.77 10.225 38.87C9.615 36.805 9.835 34.715 10.28 32.32C4.425 36.055 0.930003 40.865 0.300003 47.58C0.0550033 50.17 0.0700032 50.23 2.685 50.23C12.035 50.235 21.385 50.25 30.73 50.255C34.45 50.255 38.17 50.235 41.89 50.22C42.84 50.215 43.675 50.28 43.77 48.845C44.18 42.8 38.965 34.59 32.95 32.215ZM30.195 17.79C30.135 19.62 28.69 20.98 26.87 20.93C25.09 20.88 23.635 19.39 23.645 17.625C23.655 15.8 25.295 14.26 27.13 14.36C28.885 14.455 30.255 15.99 30.195 17.79ZM27.385 10.94C27.59 11.77 27.74 12.375 27.92 13.105C25.925 13.17 24.35 13.79 23.155 15.48C22.3 16.685 20.91 16.135 19.615 14.16C22.15 13.12 24.935 12.77 27.385 10.94ZM17.31 14.465C18.74 14.505 20.005 16.08 19.975 17.775C19.94 19.615 18.55 20.945 16.695 20.925C14.845 20.905 13.33 19.33 13.39 17.485C13.44 15.715 15.14 14.405 17.31 14.465ZM18.47 32C18.905 29.985 17.31 29.515 16.105 28.7C14.08 27.335 12.82 25.39 11.905 23.15C11.375 21.855 11.585 20.295 9.76 19.45C8.69 18.955 8.865 17.045 9.595 15.92C10.225 14.95 11.565 15.345 12.56 15.18C13.22 15.07 12.825 15.95 12.705 16.365C12.225 18.015 12.52 19.51 13.69 20.74C14.795 21.905 16.225 22.43 17.795 21.95C19.485 21.43 20.505 20.195 20.935 18.46C21.08 17.865 20.7 16.87 21.91 16.94C23.06 17.005 22.675 17.94 22.81 18.56C23.33 20.98 25.63 22.56 27.895 22.02C30.13 21.485 31.645 18.98 31.08 16.7C30.915 16.03 30.63 15.385 30.32 14.495C31.805 14.66 32.4 15.965 33.88 15.885C34.735 15.835 34.525 17.57 34.41 18.535C34.325 19.21 34.145 20.12 33.145 19.85C32.305 19.625 32.36 20.1 32.275 20.595C31.625 24.295 29.915 27.305 26.605 29.26C26.135 29.535 25.905 29.835 25.8 30.395C25.32 32.985 21.225 34.445 19.08 32.81C18.805 32.6 18.425 32.215 18.47 32ZM10.825 43.95C12.065 44.63 13.23 44.33 13.79 42.96C14.31 41.68 13.735 40.855 12.33 40.6C13.03 41.205 13.765 41.81 13.17 42.815C12.825 43.395 12.25 43.735 11.545 43.505C10.275 43.09 10.475 42.065 10.49 41.035C9.545 42.115 9.485 43.215 10.825 43.95Z" fill="white" fill-opacity="0.8"/>
</svg>
