<svg width="62" height="70" viewBox="0 0 62 70" fill="none" xmlns="http://www.w3.org/2000/svg">
<path d="M46.33 44.744C47.639 48.461 46.407 51.499 44.216 54.306C43.824 54.81 43.019 55.307 43.642 56.098C45.84 58.898 46.106 62.342 46.981 65.597C47.268 66.668 48.038 67.564 46.932 68.53C46.253 69.125 45.497 69.258 44.748 68.684C43.628 67.816 44.09 66.878 44.461 65.758C46.372 59.941 41.003 53.809 35.067 54.992C33.527 55.3 31.903 55.482 30.881 57.015C30.384 57.75 29.537 57.841 28.739 57.323C28.102 56.91 27.773 56.322 27.85 55.545C27.927 54.768 28.382 54.019 29.096 54.068C32.932 54.32 36.733 51.989 40.569 53.865C41.787 54.46 42.368 53.781 43.033 52.934C46.638 48.342 45.665 44.443 39.778 41.419C43.46 38.521 45.721 35.07 46.876 30.898C47.03 30.331 47.17 29.792 47.779 29.435C50.88 27.629 51.069 24.745 50.012 21.861C49.382 20.146 49.55 18.725 49.767 17.031C50.376 12.243 49.648 6.90203 45.497 4.67603C41.745 2.67403 37.734 0.0420265 33.016 2.64973e-05C28.753 -0.0419735 24.658 0.805027 20.703 2.30303C14.494 4.64803 11.351 9.35203 11.708 16.002C11.834 18.368 12.121 20.566 11.309 22.974C10.539 25.256 11.078 27.755 13.451 29.344C13.829 29.596 14.214 30.044 14.326 30.471C15.509 34.972 17.959 38.654 21.851 41.699C20.731 42.161 19.891 42.406 19.149 42.826C16.328 44.408 15.691 47.068 15.775 50.015C15.838 52.255 15.607 54.46 18.771 55.272C21.172 55.895 21.879 58.618 20.794 60.683C19.59 62.972 16.846 63.791 14.627 62.517C12.443 61.271 11.869 58.765 13.213 56.574C13.703 55.769 14.886 55.321 14.515 54.061C13.661 51.17 13.969 48.244 14.592 44.891C6.395 50.12 1.502 56.854 0.620005 66.255C0.277005 69.881 0.298004 69.965 3.959 69.965C17.049 69.972 30.139 69.993 43.222 70C48.43 70 53.638 69.972 58.846 69.951C60.176 69.944 61.345 70.035 61.478 68.026C62.052 59.563 54.751 48.069 46.33 44.744ZM42.473 24.549C42.389 27.111 40.366 29.015 37.818 28.945C35.326 28.875 33.289 26.789 33.303 24.318C33.317 21.763 35.613 19.607 38.182 19.747C40.639 19.88 42.557 22.029 42.473 24.549ZM38.539 14.959C38.826 16.121 39.036 16.968 39.288 17.99C36.495 18.081 34.29 18.949 32.617 21.315C31.42 23.002 29.474 22.232 27.661 19.467C31.21 18.011 35.109 17.521 38.539 14.959ZM24.434 19.894C26.436 19.95 28.207 22.155 28.165 24.528C28.116 27.104 26.17 28.966 23.573 28.938C20.983 28.91 18.862 26.705 18.946 24.122C19.016 21.644 21.396 19.81 24.434 19.894ZM26.058 44.443C26.667 41.622 24.434 40.964 22.747 39.823C19.912 37.912 18.148 35.189 16.867 32.053C16.125 30.24 16.419 28.056 13.864 26.873C12.366 26.18 12.611 23.506 13.633 21.931C14.515 20.573 16.391 21.126 17.784 20.895C18.708 20.741 18.155 21.973 17.987 22.554C17.315 24.864 17.728 26.957 19.366 28.679C20.913 30.31 22.915 31.045 25.113 30.373C27.479 29.645 28.907 27.916 29.509 25.487C29.712 24.654 29.18 23.261 30.874 23.359C32.484 23.45 31.945 24.759 32.134 25.627C32.862 29.015 36.082 31.227 39.253 30.471C42.382 29.722 44.503 26.215 43.712 23.023C43.481 22.085 43.082 21.182 42.648 19.936C44.727 20.167 45.56 21.994 47.632 21.882C48.829 21.812 48.535 24.241 48.374 25.592C48.255 26.537 48.003 27.811 46.603 27.433C45.427 27.118 45.504 27.783 45.385 28.476C44.475 33.656 42.081 37.87 37.447 40.607C36.789 40.992 36.467 41.412 36.32 42.196C35.648 45.822 29.915 47.866 26.912 45.577C26.527 45.283 25.995 44.744 26.058 44.443ZM15.355 61.173C17.091 62.125 18.722 61.705 19.506 59.787C20.234 57.995 19.429 56.84 17.462 56.483C18.442 57.33 19.471 58.177 18.638 59.584C18.155 60.396 17.35 60.872 16.363 60.55C14.585 59.969 14.865 58.534 14.886 57.092C13.563 58.604 13.479 60.144 15.355 61.173Z" fill="white" fill-opacity="0.8"/>
</svg>
