<svg width="16" height="18" viewBox="0 0 16 18" fill="none" xmlns="http://www.w3.org/2000/svg">
<path fill-rule="evenodd" clip-rule="evenodd" d="M13.8333 2.58854H13V0.921875H11.3333V2.58854H4.66667V0.921875H3V2.58854H2.16667C1.25 2.58854 0.5 3.33854 0.5 4.25521V15.9219C0.5 16.8385 1.25 17.5885 2.16667 17.5885H13.8333C14.75 17.5885 15.5 16.8385 15.5 15.9219V4.25521C15.5 3.33854 14.75 2.58854 13.8333 2.58854ZM13.8333 15.9219H2.16667V7.58854H13.8333V15.9219ZM2.16667 4.25521V5.92188H13.8333V4.25521H2.16667ZM3.83333 9.25521H12.1667V10.9219H3.83333V9.25521ZM9.66667 12.5885H3.83333V14.2552H9.66667V12.5885Z" fill="#0F8DBF"/>
</svg>
