<svg width="70" height="70" viewBox="0 0 70 70" fill="none" xmlns="http://www.w3.org/2000/svg">
<path d="M63.6999 4.564C63.2029 1.911 61.2079 0.714 58.2609 1.085C57.2109 1.218 56.8679 1.029 57.0709 0H12.901C13.013 0.819 13.006 1.253 11.837 1.099C8.39296 0.63 6.36996 2.261 5.99196 5.824C5.52296 10.178 6.15996 14.406 8.05696 18.375C10.178 22.806 12.775 23.877 17.906 22.358C19.152 21.987 19.663 22.26 20.3 23.282C22.288 26.474 24.864 29.092 28.322 30.709C28.959 31.01 28.973 31.29 28.7 31.885C27.244 35.035 26.635 38.409 26.173 41.818C26.075 42.546 26.341 42.7 26.992 42.7C32.151 42.686 37.3169 42.665 42.4759 42.707C43.5469 42.714 43.4279 42.105 43.3369 41.461C42.9029 38.311 42.3569 35.182 41.0199 32.263C40.6699 31.493 40.6489 31.136 41.5309 30.744C45.1499 29.134 47.7609 26.362 49.8259 23.065C50.3509 22.225 50.7779 21.833 51.8279 22.274C52.7659 22.659 53.8159 22.778 54.8309 22.946C57.2949 23.366 59.2899 22.477 60.6339 20.454C63.8609 15.603 64.7639 10.227 63.6999 4.564ZM17.731 20.272C16.681 20.475 15.645 20.755 14.588 20.923C12.838 21.203 11.627 20.307 10.675 18.956C9.05796 16.646 8.38596 13.986 7.99396 11.249C7.84696 10.234 7.78396 9.198 7.72096 8.582C7.72796 7 7.81196 5.838 8.23896 4.746C8.89696 3.066 11.886 2.408 13.202 3.619C13.468 3.864 13.405 4.158 13.461 4.445C14.448 9.604 15.778 14.651 18.095 19.39C18.347 19.908 18.34 20.153 17.731 20.272ZM26.768 22.778C25.956 23.373 25.459 22.785 25.011 22.127C21.693 17.241 19.698 11.788 18.179 6.132C18.144 6.006 18.123 5.88 18.095 5.754C18.165 5.208 18.347 4.739 18.963 4.641C19.6 4.536 20.013 4.774 20.209 5.446C20.671 7.049 21.14 8.652 21.679 10.227C22.96 13.972 24.514 17.584 26.81 20.839C27.279 21.49 27.524 22.225 26.768 22.778ZM62.2369 8.239C62.0829 11.473 61.6489 14.672 60.1229 17.577C57.9669 21.679 56.1679 21.364 52.0519 20.202C51.4709 20.041 51.7089 19.761 51.8629 19.446C54.1939 14.616 55.5799 9.499 56.5319 4.242C56.5739 3.99 56.5879 3.766 56.8329 3.577C58.5969 2.177 61.5159 3.192 61.9569 5.418C62.1459 6.342 62.3629 7.28 62.2369 8.239ZM48.3349 46.648C48.2999 44.884 47.2359 43.897 45.4789 43.848C44.4079 43.82 43.3299 43.841 42.2589 43.841C36.3369 43.841 30.408 43.834 24.486 43.848C22.561 43.848 21.413 44.8 21.385 46.522C21.343 48.839 21.413 51.156 21.434 53.473H14.511V70H55.4609V53.466H48.2929C48.3139 51.191 48.3769 48.916 48.3349 46.648Z" fill="white" fill-opacity="0.8"/>
</svg>
