<svg width="50" height="43" viewBox="0 0 50 43" fill="none" xmlns="http://www.w3.org/2000/svg">
<path d="M28.015 37.8895L22.685 22.0553H17.51L14.17 9.66221L11.115 22.0553H7.615C14.245 31.8489 26.82 42.5784 26.82 42.5784C26.82 42.5784 39.295 31.8489 45.875 22.0553H32.635L28.015 37.8895ZM39.33 0.304275C35.05 -0.146292 27.96 2.45809 26.73 9.2562C25.5 2.45809 18.415 -0.146292 14.14 0.304275C8.9 0.858819 1.99 3.14631 3.74 13.7668C4.09 15.8761 5.215 18.2824 6.78 20.7828H10.105L14.115 4.51782L18.495 20.7828H23.615L27.925 33.6017L31.665 20.7828H46.295V21.4166C48.065 18.6884 49.345 16.0543 49.72 13.7668C51.475 3.14631 44.56 0.858819 39.33 0.304275ZM46.295 22.0553V21.4166C46.16 21.6295 46.015 21.8424 45.875 22.0553H46.295ZM0 20.7828V22.0553H7.615C7.33 21.6295 7.05 21.2037 6.78 20.7828H0Z" fill="white"/>
</svg>
