<svg width="13" height="14" viewBox="0 0 13 14" fill="none" xmlns="http://www.w3.org/2000/svg">
<path d="M6.625 3.86035C4.875 3.86035 3.48047 5.28223 3.48047 7.00488C3.48047 8.75488 4.875 10.1494 6.625 10.1494C8.34766 10.1494 9.76953 8.75488 9.76953 7.00488C9.76953 5.28223 8.34766 3.86035 6.625 3.86035ZM6.625 9.05566C5.50391 9.05566 4.57422 8.15332 4.57422 7.00488C4.57422 5.88379 5.47656 4.98145 6.625 4.98145C7.74609 4.98145 8.64844 5.88379 8.64844 7.00488C8.64844 8.15332 7.74609 9.05566 6.625 9.05566ZM10.6172 3.75098C10.6172 3.34082 10.2891 3.0127 9.87891 3.0127C9.46875 3.0127 9.14062 3.34082 9.14062 3.75098C9.14062 4.16113 9.46875 4.48926 9.87891 4.48926C10.2891 4.48926 10.6172 4.16113 10.6172 3.75098ZM12.6953 4.48926C12.6406 3.50488 12.4219 2.62988 11.7109 1.91895C11 1.20801 10.125 0.989258 9.14062 0.93457C8.12891 0.879883 5.09375 0.879883 4.08203 0.93457C3.09766 0.989258 2.25 1.20801 1.51172 1.91895C0.800781 2.62988 0.582031 3.50488 0.527344 4.48926C0.472656 5.50098 0.472656 8.53613 0.527344 9.54785C0.582031 10.5322 0.800781 11.3799 1.51172 12.1182C2.25 12.8291 3.09766 13.0479 4.08203 13.1025C5.09375 13.1572 8.12891 13.1572 9.14062 13.1025C10.125 13.0479 11 12.8291 11.7109 12.1182C12.4219 11.3799 12.6406 10.5322 12.6953 9.54785C12.75 8.53613 12.75 5.50098 12.6953 4.48926ZM11.3828 10.6143C11.1914 11.1611 10.7539 11.5713 10.2344 11.79C9.41406 12.1182 7.5 12.0361 6.625 12.0361C5.72266 12.0361 3.80859 12.1182 3.01562 11.79C2.46875 11.5713 2.05859 11.1611 1.83984 10.6143C1.51172 9.82129 1.59375 7.90723 1.59375 7.00488C1.59375 6.12988 1.51172 4.21582 1.83984 3.39551C2.05859 2.87598 2.46875 2.46582 3.01562 2.24707C3.80859 1.91895 5.72266 2.00098 6.625 2.00098C7.5 2.00098 9.41406 1.91895 10.2344 2.24707C10.7539 2.43848 11.1641 2.87598 11.3828 3.39551C11.7109 4.21582 11.6289 6.12988 11.6289 7.00488C11.6289 7.90723 11.7109 9.82129 11.3828 10.6143Z" fill="white"/>
</svg>
