<svg width="62" height="62" viewBox="0 0 62 62" fill="none" xmlns="http://www.w3.org/2000/svg">
<path d="M61.023 28.1929C60.512 25.0849 58.083 23.0269 54.877 22.9779C50.621 22.9149 46.358 22.9499 42.095 22.9499H36.033C36.215 22.3409 36.397 21.8159 36.53 21.2909C37.384 18.0499 38.378 14.8369 37.923 11.4139C37.601 8.93592 37.02 6.54192 35.606 4.43493C33.772 1.66993 31.217 0.192926 27.815 0.395926C25.449 0.542926 23.769 1.81693 23.37 4.13393C23.062 5.89092 23.013 7.71792 23.09 9.50292C23.188 11.9319 22.775 14.2279 21.508 16.2649C19.408 19.6389 17.182 22.9429 14.963 26.2399C14.403 27.0729 14.137 27.8989 14.137 28.8929C14.158 38.5389 14.158 48.1919 14.137 57.8379C14.137 58.7619 14.466 59.4829 15.11 60.1059C16.3 61.2399 17.77 61.5269 19.338 61.5269C27.759 61.5269 36.18 61.5479 44.601 61.4989C45.987 61.4919 47.401 61.2819 48.745 60.9599C50.887 60.4489 52.763 59.3849 53.995 57.4739C55.136 55.6959 54.996 53.8269 54.163 51.9159C55.759 51.1179 56.963 49.9839 57.369 48.1779C57.775 46.4139 57.502 44.7619 56.501 43.2569C60.036 41.1079 60.491 37.4049 58.384 34.5769C60.75 33.0649 61.45 30.8249 61.023 28.1929ZM8.852 27.1499H7.361V27.1429H5.03V27.1499H3.539C1.957 27.1499 0.879001 28.2909 0.872001 29.9499C0.858001 34.7589 0.865001 39.5679 0.865001 44.3769V58.4259C0.872001 60.6309 1.866 61.6179 4.078 61.6179H5.03V61.6249L6.192 61.6179C6.192 61.6179 6.969 61.6249 7.354 61.6249V61.6179H8.306C10.525 61.6179 11.519 60.6239 11.519 58.4259V44.3769C11.519 39.5679 11.526 34.7589 11.512 29.9499C11.526 28.2909 10.448 27.1499 8.852 27.1499ZM6.199 34.5769C5.198 34.5769 4.386 33.7649 4.386 32.7639C4.386 31.7629 5.198 30.9579 6.199 30.9579C7.2 30.9579 8.012 31.7629 8.012 32.7639C8.012 33.7649 7.2 34.5769 6.199 34.5769Z" fill="white" fill-opacity="0.8"/>
</svg>
