<svg width="13" height="13" viewBox="0 0 13 13" fill="none" xmlns="http://www.w3.org/2000/svg">
<path d="M3.23438 12.2549V4.0791H0.691406V12.2549H3.23438ZM1.94922 2.98535C2.76953 2.98535 3.42578 2.30176 3.42578 1.48145C3.42578 0.688477 2.76953 0.0322266 1.94922 0.0322266C1.15625 0.0322266 0.5 0.688477 0.5 1.48145C0.5 2.30176 1.15625 2.98535 1.94922 2.98535ZM12.7227 12.2549H12.75V7.77051C12.75 5.58301 12.2578 3.8877 9.6875 3.8877C8.45703 3.8877 7.63672 4.57129 7.28125 5.2002H7.25391V4.0791H4.82031V12.2549H7.36328V8.20801C7.36328 7.1416 7.55469 6.12988 8.86719 6.12988C10.1797 6.12988 10.207 7.33301 10.207 8.29004V12.2549H12.7227Z" fill="white"/>
</svg>
