<svg width="11" height="16" viewBox="0 0 11 16" fill="none" xmlns="http://www.w3.org/2000/svg">
<path fill-rule="evenodd" clip-rule="evenodd" d="M5.5 0.754883C2.5975 0.754883 0.25 3.10238 0.25 6.00488C0.25 9.94238 5.5 15.7549 5.5 15.7549C5.5 15.7549 10.75 9.94238 10.75 6.00488C10.75 3.10238 8.4025 0.754883 5.5 0.754883ZM1.75 6.00489C1.75 3.93489 3.43 2.25489 5.5 2.25489C7.57 2.25489 9.25 3.93489 9.25 6.00489C9.25 8.16489 7.09 11.3974 5.5 13.4149C3.94 11.4124 1.75 8.14239 1.75 6.00489ZM3.625 6.00488C3.625 4.96935 4.46447 4.12988 5.5 4.12988C6.16987 4.12988 6.78886 4.48726 7.1238 5.06738C7.45873 5.64751 7.45873 6.36226 7.1238 6.94238C6.78886 7.52251 6.16987 7.87988 5.5 7.87988C4.46447 7.87988 3.625 7.04042 3.625 6.00488Z" fill="#0F8DBF"/>
</svg>
