<svg width="44" height="51" viewBox="0 0 44 51" fill="none" xmlns="http://www.w3.org/2000/svg">
<path d="M0.00974473 48.507C-0.0976772 49.4347 0.624979 50.2452 1.56248 50.2452L4.71678 50.255C5.50779 50.255 6.17186 49.6788 6.27928 48.8976C6.34764 48.4191 6.45506 47.8136 6.61131 47.13H37.1094C37.2656 47.8038 37.3926 48.4191 37.4512 48.8976C37.5586 49.6788 38.2227 50.2648 39.0137 50.255L42.168 50.2452C43.1055 50.2452 43.8379 49.4347 43.7207 48.507C43.2715 44.8058 41.2207 35.9093 32.1094 28.2238C30.3906 29.4347 28.4863 30.587 26.3965 31.6808C27.0019 32.13 27.5098 32.5988 28.0566 33.0675H15.5957C17.6758 31.2999 20.1855 29.5909 23.2812 28.048C40.0879 19.6984 43.1738 6.68078 43.7402 2.00305C43.8477 1.07532 43.125 0.264769 42.1875 0.264769L39.0234 0.255003C38.2324 0.255003 37.5684 0.831175 37.4609 1.61242C37.3926 2.09094 37.2852 2.69641 37.1289 3.38H6.62108C6.46483 2.69641 6.3574 2.10071 6.28905 1.61242C6.18162 0.831175 5.51756 0.245237 4.72654 0.255003L1.57225 0.264769C0.634745 0.264769 -0.0976772 1.07532 0.00974473 2.00305C0.517557 6.1925 3.06639 17.0323 15.625 25.255C3.07615 33.4777 0.517557 44.3175 0.00974473 48.507ZM21.875 21.7003C19.4238 20.3624 17.3437 18.9269 15.5957 17.4425H28.1445C26.4062 18.9269 24.3262 20.3722 21.875 21.7003ZM34.6777 9.63C34.1113 10.6456 33.4277 11.6906 32.6269 12.755H11.1328C10.3223 11.6906 9.63866 10.6456 9.08202 9.63H34.6777ZM9.07225 40.88C9.63866 39.8644 10.3223 38.8195 11.123 37.755H32.5488C33.3594 38.8195 34.0527 39.8644 34.6191 40.88H9.07225Z" fill="white"/>
</svg>
