<svg width="30" height="45" viewBox="0 0 30 45" fill="none" xmlns="http://www.w3.org/2000/svg">
<path d="M7.50501 7.00481C7.66001 7.01481 7.81001 7.00981 7.96001 7.00981H18.925C20.095 7.00481 21.275 7.03481 22.445 6.97981C23.3 6.93481 23.725 6.48481 23.735 5.79981C23.745 5.07981 23.23 4.49981 22.455 4.41481C21.53 4.30981 20.595 4.21481 19.665 4.15981C18.5 4.09481 17.75 3.86481 17.79 2.40981C17.795 2.21981 17.76 2.01981 17.72 1.82981C17.555 1.01981 17.11 0.554807 16.28 0.464807C15.55 0.384807 14.8 0.364808 14.065 0.409808C12.685 0.494808 12.16 1.07481 12.105 2.47981C12.055 3.68481 11.655 4.06981 10.425 4.15481C9.43001 4.22481 8.43501 4.30981 7.44001 4.41981C6.67501 4.50481 6.12001 5.11981 6.13001 5.80481C6.15001 6.47981 6.68001 6.94481 7.50501 7.00481ZM14.995 1.43481C15.5 1.44981 15.92 1.89481 15.92 2.41481C15.915 2.97981 15.545 3.36481 14.995 3.36981C14.425 3.37981 14.01 2.94981 14.025 2.37981C14.04 1.87481 14.505 1.41981 14.995 1.43481ZM24.575 6.23481C24.33 7.31481 23.6 7.72481 22.58 7.72981C17.49 7.73981 12.4 7.73981 7.31001 7.72481C6.22501 7.71981 5.75501 7.32981 5.41001 6.29481L5.35001 6.11981C5.31501 6.02481 4.91501 5.94981 4.45501 5.94981H1.04501C0.585011 5.94981 0.215012 6.31981 0.215012 6.77981V43.2998C0.215012 43.7598 0.585011 44.1298 1.04501 44.1298H28.96C29.42 44.1298 29.79 43.7598 29.79 43.2998V6.73481C29.79 6.27481 29.42 5.90481 28.96 5.90481C27.605 5.90481 26.285 5.89981 24.97 5.91981C24.83 5.92481 24.61 6.10481 24.575 6.23481ZM10.075 15.2048H12.2C12.66 15.2048 13.03 14.8348 13.03 14.3748V12.2548C13.03 11.7948 13.4 11.4248 13.86 11.4248H16.1C16.56 11.4248 16.93 11.7948 16.93 12.2548V14.3348C16.93 14.7948 17.3 15.1648 17.76 15.1648H19.925C20.385 15.1648 20.755 15.5348 20.755 15.9948V18.2448C20.755 18.7048 20.385 19.0748 19.925 19.0748H17.81C17.35 19.0748 16.98 19.4448 16.98 19.9048V22.0898C16.98 22.5498 16.61 22.9198 16.15 22.9198H13.92C13.46 22.9198 13.09 22.5498 13.09 22.0898V19.9248C13.09 19.4648 12.72 19.0948 12.26 19.0948H10.075C9.61501 19.0948 9.24501 18.7248 9.24501 18.2648V16.0398C9.24501 15.5798 9.61501 15.2048 10.075 15.2048ZM24.225 39.1398H5.77501C5.31501 39.1398 4.94501 38.7698 4.94501 38.3098V37.7298C4.94501 37.2698 5.31501 36.8998 5.77501 36.8998H24.225C24.685 36.8998 25.055 37.2698 25.055 37.7298V38.3048C25.06 38.7648 24.685 39.1398 24.225 39.1398ZM24.225 34.2398H5.77501C5.31501 34.2398 4.94501 33.8698 4.94501 33.4098V32.8298C4.94501 32.3698 5.31501 31.9998 5.77501 31.9998H24.225C24.685 31.9998 25.055 32.3698 25.055 32.8298V33.4048C25.06 33.8648 24.685 34.2398 24.225 34.2398ZM24.225 29.3348H5.77501C5.31501 29.3348 4.94501 28.9648 4.94501 28.5048V27.9248C4.94501 27.4648 5.31501 27.0948 5.77501 27.0948H24.225C24.685 27.0948 25.055 27.4648 25.055 27.9248V28.5048C25.06 28.9598 24.685 29.3348 24.225 29.3348Z" fill="white"/>
</svg>
