<svg width="15" height="14" viewBox="0 0 15 14" fill="none" xmlns="http://www.w3.org/2000/svg">
<path fill-rule="evenodd" clip-rule="evenodd" d="M1.5 0.482422H4.125C4.5375 0.482422 4.875 0.816608 4.875 1.22506C4.875 2.15335 5.025 3.04451 5.3025 3.87626C5.385 4.13619 5.325 4.42581 5.115 4.63375L3.465 6.26755C4.545 8.36921 6.285 10.0847 8.4075 11.1615L10.0575 9.52772C10.2075 9.38662 10.395 9.31235 10.59 9.31235C10.665 9.31235 10.7475 9.31978 10.8225 9.34948C11.6625 9.62426 12.57 9.77279 13.5 9.77279C13.9125 9.77279 14.25 10.107 14.25 10.5154V13.1072C14.25 13.5157 13.9125 13.8499 13.5 13.8499C6.4575 13.8499 0.75 8.1984 0.75 1.22506C0.75 0.816608 1.0875 0.482422 1.5 0.482422ZM3.405 1.96769C3.45 2.62864 3.5625 3.27473 3.7425 3.89112L2.8425 4.78228C2.535 3.89112 2.34 2.94797 2.2725 1.96769H3.405ZM10.8 10.8942C11.4375 11.0724 12.09 11.1838 12.75 11.2283V12.3349C11.76 12.268 10.8075 12.075 9.9 11.7779L10.8 10.8942Z" fill="#0F8DBF"/>
</svg>
