<svg width="15" height="12" viewBox="0 0 15 12" fill="none" xmlns="http://www.w3.org/2000/svg">
<path d="M13.0508 3.16113C13.5977 2.75098 14.0898 2.25879 14.4727 1.68457C13.9805 1.90332 13.4062 2.06738 12.832 2.12207C13.4336 1.7666 13.8711 1.21973 14.0898 0.536133C13.543 0.864258 12.9141 1.11035 12.2852 1.24707C11.7383 0.672852 11 0.344727 10.1797 0.344727C8.59375 0.344727 7.30859 1.62988 7.30859 3.21582C7.30859 3.43457 7.33594 3.65332 7.39062 3.87207C5.01172 3.73535 2.87891 2.58691 1.45703 0.864258C1.21094 1.27441 1.07422 1.7666 1.07422 2.31348C1.07422 3.29785 1.56641 4.17285 2.35938 4.69238C1.89453 4.66504 1.42969 4.55566 1.04688 4.33691V4.36426C1.04688 5.75879 2.03125 6.90723 3.34375 7.18066C3.125 7.23535 2.85156 7.29004 2.60547 7.29004C2.41406 7.29004 2.25 7.2627 2.05859 7.23535C2.41406 8.38379 3.48047 9.2041 4.73828 9.23145C3.75391 9.99707 2.52344 10.4619 1.18359 10.4619C0.9375 10.4619 0.71875 10.4346 0.5 10.4072C1.75781 11.2275 3.26172 11.6924 4.90234 11.6924C10.1797 11.6924 13.0508 7.34473 13.0508 3.54395C13.0508 3.40723 13.0508 3.29785 13.0508 3.16113Z" fill="white"/>
</svg>
