<svg width="14" height="14" viewBox="0 0 14 14" fill="none" xmlns="http://www.w3.org/2000/svg">
<path fill-rule="evenodd" clip-rule="evenodd" d="M7.00001 0.587891C5.15834 0.587891 3.66668 2.07956 3.66668 3.92122C3.66668 5.76289 5.15834 7.25456 7.00001 7.25456C8.84168 7.25456 10.3333 5.76289 10.3333 3.92122C10.3333 2.07956 8.84168 0.587891 7.00001 0.587891ZM8.66668 3.92122C8.66668 3.00456 7.91668 2.25456 7.00001 2.25456C6.08334 2.25456 5.33334 3.00456 5.33334 3.92122C5.33334 4.83789 6.08334 5.58789 7.00001 5.58789C7.91668 5.58789 8.66668 4.83789 8.66668 3.92122ZM12 12.2546C11.8333 11.6629 9.25001 10.5879 7.00001 10.5879C4.75834 10.5879 2.19168 11.6546 2.00001 12.2546H12ZM0.333344 12.2546C0.333344 10.0379 4.77501 8.92122 7.00001 8.92122C9.22501 8.92122 13.6667 10.0379 13.6667 12.2546V13.9212H0.333344V12.2546Z" fill="#0F8DBF"/>
</svg>
