<svg xmlns="http://www.w3.org/2000/svg" width="101.083" height="101" viewBox="0 0 101.083 101">
  <path id="footer-logo" d="M12295.138,11699h-.077v0q-1.273,0-2.537-.065V11687.3l-9.608,10.206a49.428,49.428,0,0,1-5.539-1.726l15.147-16.083v-30.734a12.179,12.179,0,0,0-12.2-12.414l-3.012-.053a36.51,36.51,0,0,1-25.892-12.275,49.284,49.284,0,0,1,2.956-4.563c.412.49.666.781.675.793l.037.047c5.242,6.36,13.425,10.3,22.462,10.8l2.819.049a17.216,17.216,0,0,1,12.158,4.927v-10.292a26.121,26.121,0,0,1-13.71-22.868c0-.5.021-1,.05-1.5a49.379,49.379,0,0,1,5.322-1.487c-.024.486-.034.8-.037.806l-.013.167c-.062.663-.093,1.342-.093,2.014a20.866,20.866,0,0,0,8.48,16.705V11599h5.214v20.819a20.868,20.868,0,0,0,8.479-16.705c0-.672-.031-1.351-.1-2.014l-.01-.167c0-.01-.012-.319-.037-.806a49.459,49.459,0,0,1,5.323,1.487c.027.5.049,1,.049,1.5a26.122,26.122,0,0,1-13.709,22.868v10.292a17.212,17.212,0,0,1,12.157-4.927l2.819-.049c9.037-.5,17.22-4.443,22.462-10.8l.037-.047c.01-.012.26-.3.672-.793a49.284,49.284,0,0,1,2.956,4.563,36.5,36.5,0,0,1-25.889,12.275l-3.011.053a12.179,12.179,0,0,0-12.2,12.414v30.734l15.146,16.083a49.1,49.1,0,0,1-5.542,1.726l-9.6-10.206v11.634q-1.264.066-2.537.065v0Zm12.588-21.609-2.246-31c-.1-1.1-.151-2.265-.151-3.417,0-.66.021-1.316.056-1.977.191-.105.381-.214.576-.3a9.139,9.139,0,0,1,3.857-.834l.886-.012c-.1,1.034-.148,2.075-.148,3.126,0,1,.046,2.008.136,3l1.905,26.325h26.9a49.4,49.4,0,0,1-3.183,5.2h-20.541l11.387,9.938a51.311,51.311,0,0,1-4.285,3.176Zm-44.887,10.044,11.386-9.936h-20.54a50.055,50.055,0,0,1-3.186-5.2h26.9l1.905-26.285c.094-1.031.137-2.041.137-3.039a34.121,34.121,0,0,0-.18-3.488l1.58.027.1,0a9.3,9.3,0,0,1,3.638.731c.065.9.093,1.813.093,2.727,0,1.149-.05,2.312-.151,3.454l-2.243,30.961-15.15,13.223A49.622,49.622,0,0,1,12262.839,11687.435Zm56.988-48.561a41.439,41.439,0,0,0,6.426-1.971,21.943,21.943,0,0,0,17.492,1.5l.394-.157a49.985,49.985,0,0,1,.861,5.214,27.154,27.154,0,0,1-25.173-4.585Zm-74.827,4.585a49.473,49.473,0,0,1,.852-5.181c.121.038.192.057.2.057l.165.049a21.938,21.938,0,0,0,18.208-1.855,40.874,40.874,0,0,0,6.261,1.939,27.175,27.175,0,0,1-25.684,4.991Zm80.36-34.39a49.873,49.873,0,0,1,4.288,3.634c-.223.105-.446.214-.669.325a33.648,33.648,0,0,0-15.185,15.541c-.434.043-.87.08-1.311.105l-2.717.046c-.595,0-1.184.034-1.766.084A38.731,38.731,0,0,1,12325.36,11609.069Zm-44.375,19.308-2.717-.047c-.771-.046-1.534-.124-2.29-.223a33.684,33.684,0,0,0-14.958-15.076c-.223-.114-.446-.22-.669-.328a49.953,49.953,0,0,1,4.288-3.634,38.746,38.746,0,0,1,17.2,19.342C12281.559,11628.4,12281.273,11628.377,12280.985,11628.377Z" transform="translate(-12244.459 -11598.5)" fill="#fff" stroke="rgba(0,0,0,0)" stroke-miterlimit="10" stroke-width="1"/>
</svg>
