<?xml version="1.0" encoding="utf-8"?>
<!-- Generator: Adobe Illustrator 17.0.0, SVG Export Plug-In . SVG Version: 6.00 Build 0)  -->
<!DOCTYPE svg PUBLIC "-//W3C//DTD SVG 1.1//EN" "http://www.w3.org/Graphics/SVG/1.1/DTD/svg11.dtd">
<svg version="1.1" id="Layer_1" xmlns="http://www.w3.org/2000/svg" xmlns:xlink="http://www.w3.org/1999/xlink" x="0px" y="0px"
	 width="145px" height="100px" viewBox="0 0 145 100" enable-background="new 0 0 145 100" xml:space="preserve">
<g>
	<g>
		<linearGradient id="SVGID_1_" gradientUnits="userSpaceOnUse" x1="-7.9385" y1="87.2625" x2="131.3108" y2="-6.5664">
			<stop  offset="0" style="stop-color:#662D91"/>
			<stop  offset="1" style="stop-color:#92278F"/>
		</linearGradient>
		<path fill="url(#SVGID_1_)" d="M31.903,33.815c0.428-0.95,0.836-1.845,1.237-2.744c0.405-0.907,0.824-1.81,1.199-2.729
			c0.207-0.507,0.547-0.71,1.076-0.752c1.218-0.097,2.33,0.237,3.336,0.865c1.6,1,3.159,2.066,4.735,3.103
			c0.096,0.063,0.197,0.119,0.39,0.235c0-2.421,0-4.747,0-7.155c0.367-0.037,0.678-0.107,0.983-0.091
			c1.363,0.071,2.636,0.468,3.825,1.135c0.746,0.419,1.4,0.909,1.228,2.03c0.415,0,0.752,0,1.088,0
			c27.522,0,55.044,0.005,82.566-0.013c1.528-0.001,2.886,0.407,4.156,1.204c0.168,0.106,0.377,0.194,0.479,0.348
			c0.246,0.374,0.44,0.781,0.655,1.175c-0.38,0.118-0.76,0.338-1.14,0.34c-4.503,0.024-9.005,0.015-13.554,0.128
			c0.177,0.088,0.351,0.185,0.533,0.263c2.361,1.003,4.69,2.074,6.73,3.655c0.781,0.605,1.522,1.294,2.156,2.05
			c1.733,2.066,1.951,4.385,0.941,6.849c-0.093,0.227-0.203,0.448-0.317,0.698c0.123,0.104,0.23,0.203,0.345,0.29
			c0.972,0.74,0.977,0.906,0.095,1.683c-0.203,0.179-0.372,0.399-0.541,0.613c-1.188,1.514-2.726,2.184-4.6,1.673
			c-1.26-0.344-2.494-0.838-3.675-1.4c-0.957-0.456-0.902-0.815-0.258-1.647c1.001-1.292,2.082-2.563,2.835-3.998
			c1.521-2.896,0.706-5.544-2.093-7.213c-1.115-0.665-2.333-1.159-3.698-1.826c0,0.57,0,0.854,0,1.139c0,8.809,0,17.618,0,26.427
			c0,0.979-0.082,1.084-1.035,1.096c-5.97,0.079-11.513-1.416-16.576-4.592c-2.015-1.264-3.653-2.913-4.663-5.111
			c-1.428-3.107-1.084-6.054,0.891-8.803c1.715-2.386,3.921-4.299,6.201-6.114c2.237-1.781,4.541-3.479,6.814-5.216
			c0.194-0.148,0.376-0.311,0.681-0.566c-10.369,0-20.593,0-30.842,0c-0.019,0.202-0.048,0.372-0.049,0.542
			c-0.003,3.583,0.008,7.167-0.014,10.75c-0.003,0.511,0.176,0.669,0.651,0.757c2.487,0.458,4.857,1.299,7.055,2.531
			c1.111,0.623,2.175,1.416,3.075,2.318c3.223,3.232,0.779,7.297-2.624,8.069c-2.197,0.499-4.185-0.076-5.95-1.452
			c-0.155-0.121-0.323-0.257-0.412-0.424c-0.11-0.207-0.251-0.499-0.179-0.671c0.065-0.156,0.391-0.268,0.612-0.286
			c1.897-0.152,3.293-1.236,3.888-3.052c0.47-1.436,0.017-2.808-1.291-3.538c-1.45-0.809-3.044-1.158-4.812-1.235
			c0,0.341,0,0.63,0,0.919c0,4.803,0,9.605,0,14.408c0,0.97-0.082,1.072-1.071,1.017c-1.435-0.079-2.791-0.455-4.026-1.214
			c-0.629-0.387-0.966-0.889-1.021-1.688c-0.167-2.412-1.173-4.437-3.242-5.759c-1.309-0.836-2.745-1.475-4.187-2.234
			c-0.15,0.329-0.239,0.523-0.328,0.718c-0.33,0.723-0.623,1.466-0.996,2.165c-1.099,2.061-1.894,2.327-4.027,1.405
			c-0.182-0.079-0.356-0.178-0.537-0.258c-1.57-0.69-2.601-1.753-2.672-3.587c-0.056-1.438-0.204-2.873-0.328-4.307
			c-0.06-0.688,0.284-0.907,0.894-0.81c0.832,0.131,1.658,0.292,2.557,0.453c0.685-1.14,1.031-2.418,0.995-3.777
			c-0.008-0.288-0.294-0.651-0.554-0.836c-0.759-0.541-1.57-1.009-2.393-1.526c-0.831,1.484-1.584,2.849-2.359,4.202
			c-0.508,0.887-0.996,1.161-1.967,0.862c-1.128-0.348-2.223-0.819-3.296-1.317c-0.695-0.323-1.057-0.953-1.1-1.742
			c-0.1-1.836-0.221-3.672-0.303-5.509c-0.035-0.783,0.245-1.022,1.034-0.917c0.615,0.082,1.242,0.163,1.825,0.36
			c0.733,0.248,1.118,0.009,1.303-0.686c0.209-0.783,0.52-1.56,0.584-2.356c0.071-0.878-0.385-1.194-1.182-1.574
			c-2.464-1.176-5.055-0.674-7.704-0.796c0,0.421,0,0.737,0,1.053c0,9.481,0,18.962,0,28.443c0,1.428-0.023,1.533-1.454,1.217
			c-1.242-0.274-2.447-0.765-3.623-1.267c-0.706-0.302-0.983-0.941-0.979-1.768c0.028-5.848,0.037-11.696,0.007-17.543
			c-0.017-3.359-1.356-6.168-3.763-8.485c-0.067-0.065-0.153-0.11-0.296-0.21c-1.095,2.323-2.17,4.604-3.216,6.822
			c0.946,0.762,1.864,1.44,2.711,2.198c1.207,1.079,1.596,2.351,0.769,3.873c-0.258,0.475-0.402,1.014-0.581,1.529
			c-0.27,0.774-0.794,1.175-1.625,1.161c-2.003-0.034-3.709-0.826-5.239-2.058c-0.443-0.357-0.868-0.738-1.335-1.137
			c-0.522,0.761-1.021,1.468-1.498,2.189c-1.174,1.777-2.457,2.293-4.46,1.617c-1.002-0.338-1.965-0.83-2.881-1.363
			c-0.32-0.186-0.625-0.699-0.633-1.07c-0.055-2.484-0.022-4.97-0.034-7.456c-0.003-0.638,0.344-0.908,0.892-0.765
			c1.027,0.267,2.032,0.619,3.04,0.955c0.303,0.101,0.584,0.266,0.874,0.402c1.54-3.23,0.265-8.148-4.202-8.342
			c-1.581-0.068-3.167-0.011-4.85-0.011c0,0.427,0,0.743,0,1.058c0,12.119,0,26.874,0,38.993c0,1.165-0.1,1.325-1.226,1.065
			c-1.2-0.276-2.369-0.71-3.524-1.147c-0.915-0.347-1.243-1.063-1.241-2.066c0.025-11.397,0.016-25.431,0.016-36.828
			c0-0.317,0-0.635,0-0.946c-0.821-0.101-1.609-0.053-2.275-0.314c-1.022-0.401-1.986-0.975-2.919-1.565
			c-0.241-0.153-0.274-0.636-0.402-0.968c0.312-0.106,0.621-0.296,0.936-0.305c1.332-0.034,2.664-0.015,4.086-0.015
			c-0.095-0.194-0.121-0.288-0.177-0.356c-3.82-4.666-3.226-10.854,1.572-15.291c2.37-2.192,5.234-3.258,8.375-3.743
			C24.96,7.68,28.998,8.2,32.943,9.672c4.621,1.725,8.921,4.028,12.804,7.077c0.362,0.284,0.836,0.9,0.741,1.194
			c-0.197,0.605-0.914,0.452-1.444,0.371c-1.581-0.241-2.987-0.88-4.229-1.902c-2.443-2.011-5.167-3.527-8.159-4.561
			c-5.586-1.931-12.686,0.103-16.036,4.645c-2.426,3.291-2.959,6.819-1.146,10.591c0.221,0.461,0.492,0.642,1.024,0.64
			c1.962-0.011,3.937-0.086,5.885,0.093c3.733,0.342,6.445,2.526,8.811,5.235c0.18,0.206,0.349,0.421,0.524,0.631
			C31.734,33.704,31.759,33.715,31.903,33.815z M116.498,36.842c-0.074-0.054-0.148-0.109-0.223-0.163
			c-2.64,2.298-5.334,4.537-7.89,6.925c-0.883,0.824-1.576,1.945-2.087,3.054c-1.262,2.741-1.089,5.464,0.819,7.865
			c2.379,2.996,5.763,3.612,9.382,3.734C116.498,51.048,116.498,43.945,116.498,36.842z M61.377,30.813
			c3.761,2.146,4.269,4.714,2.754,7.505c0.076,0.054,0.147,0.128,0.233,0.164c2.391,0.989,4.512,2.4,6.45,4.102
			c0.869,0.763,1.456,1.65,1.223,2.866c-0.209,1.087-0.467,2.164-0.695,3.206c2.178,1.052,4.377,2.114,6.614,3.194
			c0-2.592,0.009-5.175-0.021-7.758c-0.002-0.178-0.266-0.438-0.465-0.516c-1.432-0.562-2.925-0.991-4.308-1.651
			c-1.469-0.701-2.926-1.492-4.227-2.461c-1.371-1.021-1.793-2.535-1.266-4.21c0.518-1.648,1.578-2.91,2.946-3.932
			c0.18-0.135,0.355-0.277,0.649-0.508C67.909,30.813,64.739,30.813,61.377,30.813z M77.923,33.179
			c-2.188,0.628-4.172,2.984-4.386,5.179c-0.071,0.731,0.209,1.321,0.782,1.751c1.06,0.795,2.338,0.951,3.604,1.252
			C77.923,38.576,77.923,35.882,77.923,33.179z"/>
	</g>
	<g>
		<g>
			<linearGradient id="SVGID_2_" gradientUnits="userSpaceOnUse" x1="28.9226" y1="108.3022" x2="155.6216" y2="40.7692">
				<stop  offset="0" style="stop-color:#009444"/>
				<stop  offset="1" style="stop-color:#8DC63F"/>
			</linearGradient>
			<path fill="url(#SVGID_2_)" d="M66.835,66.745c-1.176,0-2.266,0-3.424,0c0,0.242,0,0.449,0,0.655c0,6.202,0,12.403,0,18.605
				c0,0.808-0.047,0.863-0.853,0.864c-3.986,0.006-7.705-0.956-11.055-3.154c-0.69-0.453-1.315-1.034-1.881-1.638
				c-1.94-2.07-1.965-5.103-0.098-7.325c1.232-1.466,2.74-2.62,4.283-3.729c1.753-1.26,3.518-2.503,5.273-3.759
				c0.144-0.103,0.255-0.254,0.381-0.383c-0.017-0.043-0.034-0.085-0.051-0.128c-0.185-0.009-0.369-0.026-0.554-0.026
				c-3.584-0.002-7.167-0.007-10.751,0.002c-0.989,0.003-1.857-0.324-2.652-0.88c-0.158-0.111-0.318-0.247-0.416-0.408
				c-0.093-0.153-0.177-0.375-0.131-0.527c0.031-0.103,0.288-0.163,0.453-0.192c0.191-0.034,0.391-0.016,0.588-0.016
				c29.83,0,59.66,0.001,89.489-0.008c1.002,0,1.903,0.245,2.733,0.785c0.163,0.106,0.346,0.22,0.445,0.377
				c0.122,0.193,0.166,0.436,0.244,0.657c-0.206,0.069-0.411,0.194-0.617,0.197c-1.193,0.019-2.387,0.009-3.673,0.009
				c0,0.234,0,0.438,0,0.641c0,6.316,0,12.632,0,18.948c0,0.688-0.064,0.794-0.72,0.635c-0.897-0.217-1.779-0.51-2.644-0.834
				c-0.501-0.188-0.682-0.62-0.694-1.181c-0.028-1.288-0.052-2.584-0.222-3.857c-0.09-0.673-0.4-1.355-0.754-1.947
				c-1.33-2.229-3.058-4.117-5.119-5.697c-0.062-0.047-0.131-0.084-0.262-0.166c0,0.869,0.043,1.678-0.008,2.482
				c-0.131,2.032-0.828,3.883-1.883,5.613c-0.231,0.378-0.561,0.489-0.958,0.441c-1.047-0.126-1.98-0.537-2.811-1.182
				c-0.336-0.26-0.367-0.518-0.165-0.925c0.331-0.665,0.585-1.373,0.814-2.082c0.182-0.564-0.039-1.047-0.447-1.469
				c-0.14-0.145-0.194-0.373-0.287-0.563c0.212-0.091,0.419-0.237,0.638-0.259c0.286-0.029,0.581,0.039,0.928,0.07
				c0.261-1.03,0.301-2.102,0.178-3.169c-0.093-0.808-0.29-1.605-0.466-2.402c-0.106-0.48-0.053-0.591,0.437-0.608
				c1.13-0.039,2.124,0.366,3.002,1.031c2.463,1.867,4.986,3.663,7.189,5.85c0.034,0.034,0.078,0.059,0.164,0.123
				c0-3.16,0-6.285,0-9.453c-5.012,0-10.039,0-15.146,0c0,0.212,0,0.418,0,0.624c0,6.3,0,12.6,0,18.899
				c0,0.819-0.067,0.874-0.87,0.769c-4.841-0.63-9.143-2.505-12.904-5.613c-0.465-0.384-0.908-0.805-1.309-1.255
				c-1.064-1.193-1.031-2.44,0.094-3.565c0.403-0.403,0.888-0.724,1.298-1.121c1.022-0.986,2.077-1.946,3.017-3.007
				c1.009-1.138,0.847-2.397-0.368-3.318c-1.054-0.8-2.163-1.528-3.252-2.281c-0.116-0.08-0.264-0.161-0.399-0.162
				c-1.291-0.012-2.581-0.007-3.953-0.007c0,0.241,0,0.446,0,0.652c0,7.936,0,15.872,0,23.808c0,0.736-0.095,0.86-0.821,0.691
				c-0.788-0.184-1.561-0.452-2.32-0.738c-0.579-0.219-0.799-0.678-0.797-1.32c0.015-7.462,0.01-14.923,0.009-22.385
				c0-0.806,0.067-0.708-0.708-0.709c-2.994-0.003-5.989-0.001-8.983-0.001c-0.173,0-0.345,0-0.518,0
				c-0.011,0.036-0.022,0.072-0.034,0.108c0.334,0.181,0.66,0.377,1.002,0.541c2.395,1.152,4.323,2.811,5.606,5.164
				c1.094,2.006,1.379,4.152,0.688,6.311c-0.743,2.32-2.403,3.856-4.714,4.64c-1.834,0.622-3.734,0.594-5.632,0.447
				c-2.044-0.158-3.958-0.826-5.846-1.57c-0.389-0.153-0.764-0.383-1.083-0.651c-0.148-0.124-0.218-0.44-0.182-0.644
				c0.019-0.109,0.35-0.253,0.519-0.23c0.479,0.065,0.968,0.155,1.417,0.328c2.129,0.82,4.308,1.052,6.551,0.621
				c2.509-0.481,4.602-2.592,5.129-5.164c0.629-3.07-0.75-6.329-3.385-7.994c-0.149-0.094-0.303-0.179-0.51-0.301
				c-0.018,0.182-0.041,0.302-0.041,0.422c-0.002,1.8-0.015,3.6,0.006,5.4c0.007,0.569,0.122,1.137,0.158,1.707
				c0.034,0.542-0.11,0.715-0.64,0.672c-1.113-0.089-2.147-0.451-3.007-1.172c-0.212-0.177-0.336-0.561-0.349-0.856
				c-0.042-0.982-0.219-1.909-0.748-2.757c-0.299-0.48-0.221-0.596,0.366-0.641c0.063-0.005,0.125-0.017,0.237-0.032
				c0-1.362-0.002-2.716,0.001-4.071c0.001-0.35-0.252-0.278-0.45-0.278c-1.816-0.003-3.633-0.002-5.449-0.002
				c-0.439,0-0.878,0-1.393,0c0,0.249,0,0.456,0,0.662c0,7.936,0,15.872,0,23.807c0,0.718-0.095,0.845-0.78,0.69
				c-0.774-0.175-1.535-0.428-2.281-0.701c-0.635-0.233-0.881-0.714-0.879-1.42c0.019-7.445,0.012-14.89,0.012-22.336
				C66.835,67.22,66.835,67.01,66.835,66.745z M103.814,66.76c0.738,0.505,1.389,0.937,2.025,1.389
				c1.107,0.786,2.213,1.571,3.002,2.715c0.753,1.092,0.821,2.114-0.068,3.092c-1.107,1.217-2.346,2.313-3.526,3.463
				c-0.467,0.455-0.956,0.89-1.389,1.376c-0.361,0.405-0.466,0.928-0.231,1.423c0.199,0.417,0.449,0.849,0.785,1.155
				c1.642,1.496,3.542,2.557,5.673,3.195c0.4,0.12,0.809,0.211,1.245,0.324c0-6.078,0-12.088,0-18.131
				C108.845,66.76,106.387,66.76,103.814,66.76z M59.396,71.537c-0.107,0.053-0.17,0.072-0.218,0.109
				c-1.505,1.153-3.028,2.284-4.505,3.472c-0.874,0.704-1.517,1.619-2.032,2.619c-0.507,0.985-0.675,2.018-0.364,3.088
				c0.51,1.755,1.698,2.857,3.403,3.446c1.198,0.414,2.42,0.634,3.715,0.557C59.396,80.391,59.396,75.995,59.396,71.537z"/>
		</g>
		<g>
			<linearGradient id="SVGID_3_" gradientUnits="userSpaceOnUse" x1="36.9531" y1="123.3683" x2="163.6521" y2="55.8354">
				<stop  offset="0" style="stop-color:#009444"/>
				<stop  offset="1" style="stop-color:#8DC63F"/>
			</linearGradient>
			<path fill="url(#SVGID_3_)" d="M104.185,85.806c1.384,0.061,2.662,0.468,3.875,1.12c0.377,0.202,0.386,0.419,0.11,0.675
				c-0.844,0.781-1.83,1.313-2.957,1.543c-0.216,0.044-0.491-0.049-0.701-0.155c-1.128-0.564-2.319-0.87-3.573-0.96
				c-0.181-0.013-0.355-0.118-0.533-0.18c0.076-0.191,0.105-0.427,0.236-0.566C101.601,86.272,102.778,85.756,104.185,85.806z"/>
		</g>
	</g>
</g>
</svg>
