<svg xmlns="http://www.w3.org/2000/svg" width="82.885" height="19.346" viewBox="0 0 82.885 19.346">
  <path id="logo" d="M1.294-2.437a5.868,5.868,0,0,1-.64-2.739,5.868,5.868,0,0,1,.64-2.739A4.953,4.953,0,0,1,3.086-9.873,4.736,4.736,0,0,1,5.654-10.6,4.443,4.443,0,0,1,9.1-9.121v-.6a.565.565,0,0,1,.635-.645h1.445a.565.565,0,0,1,.635.645V-.645A.565.565,0,0,1,11.182,0H9.736A.565.565,0,0,1,9.1-.645v-.6A4.429,4.429,0,0,1,5.654.244,4.736,4.736,0,0,1,3.086-.479,4.953,4.953,0,0,1,1.294-2.437ZM3.408-5.176a2.964,2.964,0,0,0,.82,2.129,2.673,2.673,0,0,0,2.012.859,2.708,2.708,0,0,0,2.031-.864A2.949,2.949,0,0,0,9.1-5.176,2.966,2.966,0,0,0,8.271-7.3,2.7,2.7,0,0,0,6.24-8.174,2.659,2.659,0,0,0,4.229-7.3,2.986,2.986,0,0,0,3.408-5.176ZM17.832-3.594A1.452,1.452,0,0,0,18.2-2.5a1.739,1.739,0,0,0,1.216.347q.215,0,.322-.01.664-.02.664.615v.82a.692.692,0,0,1-.469.742,4.125,4.125,0,0,1-1.367.225,3.421,3.421,0,0,1-2.583-.928,3.8,3.8,0,0,1-.894-2.734V-7.969H13.916a.565.565,0,0,1-.635-.645v-1.1a.565.565,0,0,1,.635-.645h1.172v-1.875a.641.641,0,0,1,.566-.693l1.484-.293a.569.569,0,0,1,.508.088.6.6,0,0,1,.186.488v2.285h1.807a.565.565,0,0,1,.635.645v1.1a.565.565,0,0,1-.635.645H17.832Zm4.678-8.394a1.507,1.507,0,0,1-.469-1.128,1.523,1.523,0,0,1,.469-1.133,1.6,1.6,0,0,1,1.162-.459,1.6,1.6,0,0,1,1.162.459,1.523,1.523,0,0,1,.469,1.133,1.507,1.507,0,0,1-.469,1.128,1.6,1.6,0,0,1-1.162.454A1.6,1.6,0,0,1,22.51-11.987Zm-.225,2.271a.64.64,0,0,1,.171-.474.64.64,0,0,1,.474-.171h1.465a.64.64,0,0,1,.474.171.64.64,0,0,1,.171.474V-.645a.637.637,0,0,1-.171.479A.651.651,0,0,1,24.395,0H22.93a.651.651,0,0,1-.474-.166.637.637,0,0,1-.171-.479Zm13.906-.645a.577.577,0,0,1,.5.2.553.553,0,0,1,.029.532L33.457-.508A.7.7,0,0,1,32.725,0H30.869a.7.7,0,0,1-.732-.508L26.875-9.629a.564.564,0,0,1,.024-.532.563.563,0,0,1,.493-.2h1.533a.7.7,0,0,1,.723.518L31.8-3.311l2.148-6.533a.7.7,0,0,1,.723-.518Zm4.2,6.006a2.721,2.721,0,0,0,1.025,1.743,3.265,3.265,0,0,0,2.08.659,4.6,4.6,0,0,0,2.939-.986.615.615,0,0,1,.908.039l.488.488a.572.572,0,0,1,.02.908A6.112,6.112,0,0,1,43.506.244,6.671,6.671,0,0,1,41.1-.181a5.484,5.484,0,0,1-1.865-1.152,5.243,5.243,0,0,1-1.187-1.724,5.293,5.293,0,0,1-.43-2.119,5.328,5.328,0,0,1,.43-2.124,5.286,5.286,0,0,1,1.172-1.724,5.482,5.482,0,0,1,1.792-1.147,5.892,5.892,0,0,1,2.231-.425,5.617,5.617,0,0,1,2.8.7,5.034,5.034,0,0,1,1.938,1.9,5.183,5.183,0,0,1,.688,2.632q0,.146-.02.42a.6.6,0,0,1-.693.586Zm2.832-4.053a2.78,2.78,0,0,0-1.729.571,2.893,2.893,0,0,0-1.035,1.519H45.84a2.776,2.776,0,0,0-.933-1.514A2.561,2.561,0,0,0,43.223-8.408ZM56.348-10.6a3.989,3.989,0,0,1,2.969,1.157,4.129,4.129,0,0,1,1.143,3.032V-.645a.637.637,0,0,1-.171.479A.651.651,0,0,1,59.814,0H58.35a.651.651,0,0,1-.474-.166.637.637,0,0,1-.171-.479V-6.123a2.005,2.005,0,0,0-.581-1.455,1.865,1.865,0,0,0-1.382-.6,2.24,2.24,0,0,0-1.665.693A2.512,2.512,0,0,0,53.4-5.645v5a.648.648,0,0,1-.166.479A.648.648,0,0,1,52.754,0H51.289a.648.648,0,0,1-.479-.166.648.648,0,0,1-.166-.479V-9.717a.651.651,0,0,1,.166-.474.637.637,0,0,1,.479-.171h1.465a.637.637,0,0,1,.479.171.651.651,0,0,1,.166.474V-9.2A3.672,3.672,0,0,1,56.348-10.6ZM71.992-3.018a.593.593,0,0,1,.166.889A4.834,4.834,0,0,1,67.871.244a5.883,5.883,0,0,1-2.91-.723,5.209,5.209,0,0,1-2.017-1.958,5.353,5.353,0,0,1-.718-2.739,5.416,5.416,0,0,1,.713-2.739,5.2,5.2,0,0,1,1.968-1.963,5.478,5.478,0,0,1,2.769-.718,5.423,5.423,0,0,1,2.979.791,4.779,4.779,0,0,1,1.846,2.2.513.513,0,0,1-.024.522.591.591,0,0,1-.5.2h-1.7a.784.784,0,0,1-.425-.107,1.245,1.245,0,0,1-.337-.342,2.161,2.161,0,0,0-1.836-.84,2.48,2.48,0,0,0-1.909.869,3.058,3.058,0,0,0-.786,2.129,2.936,2.936,0,0,0,.83,2.139,2.883,2.883,0,0,0,2.158.85,3.609,3.609,0,0,0,2.637-1.123.6.6,0,0,1,.9-.088Zm4.18,7.656a.561.561,0,0,1-.5-.2.577.577,0,0,1-.01-.542L77.2,0,73.662-9.619a.585.585,0,0,1,.02-.537.543.543,0,0,1,.488-.205H75.7a.7.7,0,0,1,.723.518l2.129,6.367,2.158-6.367a.7.7,0,0,1,.732-.518h1.523a.557.557,0,0,1,.493.205.574.574,0,0,1,.024.537L78.438,4.131a.715.715,0,0,1-.732.508Z" transform="translate(-0.654 14.707)" fill="#fff"/>
</svg>
