<svg xmlns="http://www.w3.org/2000/svg" width="222.039" height="69.002" viewBox="0 0 222.039 69.002">
  <path id="logo" d="M12306.095,19639h-.055v0c-.576,0-1.153-.01-1.725-.045v-7.91l-6.531,6.945a34.736,34.736,0,0,1-3.766-1.174l10.3-10.937v-20.9a8.277,8.277,0,0,0-8.3-8.437l-2.05-.039a24.82,24.82,0,0,1-17.605-8.346,33.194,33.194,0,0,1,2.011-3.105c.276.336.448.533.458.537l.025.035a21.232,21.232,0,0,0,15.273,7.35l1.918.029a11.688,11.688,0,0,1,8.266,3.352v-7a17.765,17.765,0,0,1-9.32-15.549c0-.34.015-.68.029-1.021a34.783,34.783,0,0,1,3.623-1.01c-.021.33-.025.537-.025.547l-.01.113c-.039.453-.063.912-.063,1.371a14.194,14.194,0,0,0,5.767,11.359V19571h3.543v14.16a14.194,14.194,0,0,0,5.767-11.359c0-.459-.02-.918-.063-1.371l0-.113c0-.01-.01-.217-.029-.547a34.171,34.171,0,0,1,3.622,1.01c.02.342.034.682.034,1.021a17.76,17.76,0,0,1-9.325,15.549v7a11.7,11.7,0,0,1,8.271-3.352l1.918-.029a21.232,21.232,0,0,0,15.273-7.35l.025-.035s.177-.2.458-.537a34.212,34.212,0,0,1,2.011,3.105,24.838,24.838,0,0,1-17.605,8.346l-2.05.039a8.281,8.281,0,0,0-8.3,8.438v20.9l10.3,10.938a34.736,34.736,0,0,1-3.766,1.174l-6.536-6.945v7.91c-.571.035-1.143.045-1.725.045v0Zm8.561-14.691-1.527-21.086c-.069-.748-.1-1.537-.1-2.32,0-.449.015-.9.034-1.342.133-.074.262-.148.395-.207a6.157,6.157,0,0,1,2.622-.566l.6-.01c-.064.7-.1,1.41-.1,2.125,0,.68.029,1.365.094,2.039l1.3,17.9h18.29a32.4,32.4,0,0,1-2.163,3.533h-13.969l7.743,6.758a34.273,34.273,0,0,1-2.912,2.164Zm-30.523,6.826,7.743-6.752H12277.9a34.917,34.917,0,0,1-2.164-3.535h18.3l1.3-17.877c.059-.7.089-1.389.089-2.064a22.484,22.484,0,0,0-.123-2.375l1.079.02h.063a6.372,6.372,0,0,1,2.475.5c.044.615.06,1.232.06,1.857,0,.779-.03,1.572-.1,2.346l-1.523,21.057-10.3,8.99A33.379,33.379,0,0,1,12284.132,19631.135Zm197.938-15.729a7.388,7.388,0,0,1-4.18-4.16,8.452,8.452,0,0,1-.592-3.178,8.609,8.609,0,0,1,.587-3.18,7.453,7.453,0,0,1,4.149-4.2,8.518,8.518,0,0,1,3.189-.6,8.252,8.252,0,0,1,3.174.607,7.067,7.067,0,0,1,2.444,1.68,8.563,8.563,0,0,1,2.135,6.525l0,.119h-12.248a5.169,5.169,0,0,0,.463,1.646,4.05,4.05,0,0,0,.986,1.3,4.177,4.177,0,0,0,1.4.8,5.318,5.318,0,0,0,1.726.275,5.509,5.509,0,0,0,1.267-.139,4.169,4.169,0,0,0,1.1-.408,3.872,3.872,0,0,0,.9-.676,3.677,3.677,0,0,0,.518-.68l2.75,1.553c-.118.178-.241.35-.365.508a6.837,6.837,0,0,1-1.725,1.566,7.5,7.5,0,0,1-2.109.928,9.04,9.04,0,0,1-2.356.3A8.588,8.588,0,0,1,12482.07,19615.406Zm1.572-12.135a4.211,4.211,0,0,0-1.262.705,4.578,4.578,0,0,0-1.464,2.277h8.447a4.411,4.411,0,0,0-1.39-2.287,3.983,3.983,0,0,0-1.228-.7,4.664,4.664,0,0,0-1.522-.246A4.9,4.9,0,0,0,12483.643,19603.271Zm-41.919,9.863a9.683,9.683,0,0,1-2.135-3.174,10.524,10.524,0,0,1,0-7.92,9.664,9.664,0,0,1,2.135-3.176,10.116,10.116,0,0,1,7.181-2.863,10.509,10.509,0,0,1,3.973.76,9.939,9.939,0,0,1,1.716.9,9.734,9.734,0,0,1,1.483,1.2,10.275,10.275,0,0,1,1.217,1.469,9.868,9.868,0,0,1,.912,1.707,10.331,10.331,0,0,1,0,7.92,10.068,10.068,0,0,1-.912,1.705,10.5,10.5,0,0,1-1.217,1.469,10.373,10.373,0,0,1-1.483,1.2,10.049,10.049,0,0,1-1.716.9,10.437,10.437,0,0,1-3.973.764A10.116,10.116,0,0,1,12441.724,19613.135Zm4.52-13.422a6.39,6.39,0,0,0-2.124,1.42,6.537,6.537,0,0,0-1.41,2.154,7.5,7.5,0,0,0,0,5.426,6.424,6.424,0,0,0,3.534,3.574,6.976,6.976,0,0,0,2.661.512,6.865,6.865,0,0,0,2.643-.512,6.4,6.4,0,0,0,3.523-3.574,7.5,7.5,0,0,0,0-5.426,6.445,6.445,0,0,0-1.4-2.154,6.34,6.34,0,0,0-2.119-1.42,6.865,6.865,0,0,0-2.643-.512A6.976,6.976,0,0,0,12446.243,19599.713Zm-16.093,14.758a5.212,5.212,0,0,1-1.2-1.937,8.165,8.165,0,0,1-.434-2.74v-6.225h-2.8v-3.154h2.8v-3.381l.1-.02,3.263-.721v4.121h6.4l-1.8,3.154h-4.594v6.057a3.641,3.641,0,0,0,.715,2.426,2.666,2.666,0,0,0,2.119.828,9.712,9.712,0,0,0,2.928-.646l.32-.113-2.134,3.717-.06.01a9.293,9.293,0,0,1-1.606.152A5.479,5.479,0,0,1,12430.15,19614.471Zm-28.9.936a6.515,6.515,0,0,1-2.248-1.65,7.367,7.367,0,0,1-1.474-2.51,9.462,9.462,0,0,1-.532-3.2,9.274,9.274,0,0,1,.537-3.193,7.628,7.628,0,0,1,1.483-2.523,6.737,6.737,0,0,1,2.248-1.646,6.822,6.822,0,0,1,2.8-.592,6.416,6.416,0,0,1,3.194.818,6.481,6.481,0,0,1,1.237.932,7.37,7.37,0,0,1,.734.857v-2.277h3.356v15.256h-3.356v-2.219a6.616,6.616,0,0,1-.734.838,6.033,6.033,0,0,1-1.237.916,6.421,6.421,0,0,1-3.169.789A6.878,6.878,0,0,1,12401.249,19615.406Zm1.739-11.764a3.923,3.923,0,0,0-1.38.975,4.516,4.516,0,0,0-.9,1.5,5.6,5.6,0,0,0-.325,1.928,5.476,5.476,0,0,0,.33,1.938,4.336,4.336,0,0,0,.907,1.5,3.907,3.907,0,0,0,1.38.971,4.41,4.41,0,0,0,1.755.346,4.571,4.571,0,0,0,1.784-.346,4.1,4.1,0,0,0,1.43-.971,4.371,4.371,0,0,0,.946-1.5,5.573,5.573,0,0,0,0-3.859,4.371,4.371,0,0,0-.946-1.5,4.257,4.257,0,0,0-1.43-.98,4.575,4.575,0,0,0-1.784-.352A4.444,4.444,0,0,0,12402.988,19603.643Zm-44.107,11.838a7.418,7.418,0,0,1-2.509-1.395,6.827,6.827,0,0,1-1.582-2.035,8.053,8.053,0,0,1-.769-2.406l-.024-.143h3.381l.024.094a4.02,4.02,0,0,0,1.577,2.43,5.914,5.914,0,0,0,3.4.828,7.106,7.106,0,0,0,1.7-.182,3.847,3.847,0,0,0,1.232-.523,2.287,2.287,0,0,0,.749-.822,2.437,2.437,0,0,0,.256-1.129,1.718,1.718,0,0,0-.261-.986,2.017,2.017,0,0,0-.833-.664,18.355,18.355,0,0,0-3.667-1.025l-.267-.061a25.68,25.68,0,0,1-2.627-.693,8.871,8.871,0,0,1-2.139-1.006,4.345,4.345,0,0,1-1.449-1.553,4.266,4.266,0,0,1-.395-1.045,5.6,5.6,0,0,1-.133-1.252,5.523,5.523,0,0,1,.6-2.562,5.442,5.442,0,0,1,1.6-1.854,8.336,8.336,0,0,1,4.982-1.494,10.756,10.756,0,0,1,3.185.439,6.822,6.822,0,0,1,2.3,1.207,6.067,6.067,0,0,1,1.488,1.789,7.349,7.349,0,0,1,.754,2.178l.024.148h-3.371l-.034-.088a3.592,3.592,0,0,0-.542-1.035,3.263,3.263,0,0,0-.862-.8,4.2,4.2,0,0,0-1.242-.512,7.163,7.163,0,0,0-1.676-.184,6.485,6.485,0,0,0-1.676.2,3.577,3.577,0,0,0-1.2.551,2.309,2.309,0,0,0-.971,1.928,1.492,1.492,0,0,0,.2.8,1.77,1.77,0,0,0,.68.586,13.741,13.741,0,0,0,3.3.971c1.414.311,2.41.566,3.238.834a9.646,9.646,0,0,1,2.385,1.084,4.215,4.215,0,0,1,1.489,1.6,4.98,4.98,0,0,1,.508,2.361,5.637,5.637,0,0,1-.651,2.73,5.364,5.364,0,0,1-1.7,1.844,7.538,7.538,0,0,1-2.341,1.035,10.168,10.168,0,0,1-2.6.324A11.172,11.172,0,0,1,12358.881,19615.48Zm113.593.193v-8.967a5.359,5.359,0,0,0-.187-1.492,2.777,2.777,0,0,0-.571-1.061,2.367,2.367,0,0,0-.976-.641,4.136,4.136,0,0,0-1.43-.223,4.643,4.643,0,0,0-1.715.3,3.293,3.293,0,0,0-1.232.873,3.88,3.88,0,0,0-.754,1.4,6.446,6.446,0,0,0-.257,1.9v7.9h-3.361v-11.549h-2.045l2.1-3.707h3.307v2.18a6.292,6.292,0,0,1,.686-.834,5.322,5.322,0,0,1,2.567-1.473,6.667,6.667,0,0,1,1.666-.2,6.364,6.364,0,0,1,2.331.414,4.714,4.714,0,0,1,1.755,1.193,5.318,5.318,0,0,1,1.1,1.887,7.935,7.935,0,0,1,.374,2.5v9.592Zm-57.42,0v-15.26h3.361v2.543a4.173,4.173,0,0,1,1.829-1.824,8.1,8.1,0,0,1,3.845-.719h.128v3.1h-.917a5.986,5.986,0,0,0-1.937.295,4.238,4.238,0,0,0-1.542.922,4.191,4.191,0,0,0-1.03,1.6,6.694,6.694,0,0,0-.375,2.342v7Zm-23.259,0v-9.1a5.459,5.459,0,0,0-.167-1.443,2.62,2.62,0,0,0-.513-1.016,2.131,2.131,0,0,0-.878-.611,3.969,3.969,0,0,0-2.858.113,3.024,3.024,0,0,0-1.108.906,5.315,5.315,0,0,0-.912,3.248l.029,7.9H12382v-9.1a5.667,5.667,0,0,0-.168-1.443,2.548,2.548,0,0,0-.518-1.016,2.072,2.072,0,0,0-.877-.611,3.57,3.57,0,0,0-1.3-.213,3.534,3.534,0,0,0-1.548.326,3.011,3.011,0,0,0-1.1.906,4.218,4.218,0,0,0-.67,1.41,7.058,7.058,0,0,0-.227,1.838v7.9h-3.356v-15.256h3.356v2.09a7.135,7.135,0,0,1,.646-.8,5.339,5.339,0,0,1,1.084-.877,4.955,4.955,0,0,1,1.3-.547,6.1,6.1,0,0,1,1.532-.193,5.215,5.215,0,0,1,2.992.838,4.646,4.646,0,0,1,1.69,2.125,5.944,5.944,0,0,1,1.952-2.1,5.724,5.724,0,0,1,3.134-.863,5.879,5.879,0,0,1,2.193.4,4.468,4.468,0,0,1,1.651,1.152,5.075,5.075,0,0,1,1.03,1.838,7.869,7.869,0,0,1,.359,2.441v9.754Zm-68.913-17.562a28.036,28.036,0,0,0,4.371-1.336,14.9,14.9,0,0,0,11.894,1.016c.044-.014.138-.055.267-.1a33.7,33.7,0,0,1,.586,3.545,18.47,18.47,0,0,1-17.117-3.121Zm-50.88,3.121a33.133,33.133,0,0,1,.577-3.52c.084.02.128.035.133.035l.113.033a14.917,14.917,0,0,0,12.381-1.262,28.263,28.263,0,0,0,4.259,1.32,18.493,18.493,0,0,1-17.463,3.393Zm54.646-23.387a35.429,35.429,0,0,1,2.913,2.469c-.153.078-.306.148-.454.227a22.838,22.838,0,0,0-10.325,10.563c-.3.029-.592.059-.893.074l-1.848.029c-.4,0-.8.023-1.2.059A26.327,26.327,0,0,1,12326.647,19577.846Zm-30.179,13.129-1.844-.029c-.527-.029-1.045-.084-1.562-.152a22.88,22.88,0,0,0-10.168-10.252c-.152-.078-.306-.148-.458-.223a33.877,33.877,0,0,1,2.918-2.473,26.343,26.343,0,0,1,11.7,13.154C12296.857,19590.99,12296.666,19590.975,12296.469,19590.975Z" transform="translate(-12271.461 -19570.498)" fill="#1d2a45" stroke="rgba(0,0,0,0)" stroke-miterlimit="10" stroke-width="1"/>
</svg>
