<svg xmlns="http://www.w3.org/2000/svg" width="46" height="52" viewBox="0 0 46 52">
  <path id="agile" d="M8.985,46.582a12.74,12.74,0,0,0,9.036-3.823A12.468,12.468,0,0,0,21.582,33.7V9.242l-3,2.97a2.761,2.761,0,0,1-3.875,0,2.686,2.686,0,0,1,0-3.833L22.379.794a2.756,2.756,0,0,1,3.871,0l7.672,7.589a2.686,2.686,0,0,1,0,3.825,2.757,2.757,0,0,1-3.867,0l-2.994-2.96V28.037a18.955,18.955,0,0,1,12.048-4.2h3.789L39.9,20.873a2.688,2.688,0,0,1,0-3.827,2.757,2.757,0,0,1,3.867,0l7.672,7.589a2.684,2.684,0,0,1,0,3.829l-7.672,7.587a2.758,2.758,0,0,1-3.867,0,2.688,2.688,0,0,1,0-3.827l3-2.97h-3.8a12.939,12.939,0,0,0-7.855,2.429A12.713,12.713,0,0,0,26.5,38.325l-.023,0v0a17.7,17.7,0,0,1-6.329,9.862A18.036,18.036,0,0,1,8.986,52a2.709,2.709,0,1,1,0-5.417Z" transform="translate(-6.249 0)" fill="#f6e343"/>
</svg>
