<svg xmlns="http://www.w3.org/2000/svg" width="24" height="15" viewBox="0 0 24 15">
  <g id="arrow-right" transform="translate(-1418 -5446)">
    <path id="Path_30673" data-name="Path 30673" d="M0,0H3V3H0Z" transform="translate(1418 5455) rotate(-90)" fill="#1d2a45"/>
    <path id="Path_30672" data-name="Path 30672" d="M0,0H3V3H0Z" transform="translate(1424 5455) rotate(-90)" fill="#1d2a45"/>
    <path id="Path_30671" data-name="Path 30671" d="M0,0H3V3H0Z" transform="translate(1430 5455) rotate(-90)" fill="#1d2a45"/>
    <path id="Path_30670" data-name="Path 30670" d="M0,0H3V3H0Z" transform="translate(1436 5455) rotate(-90)" fill="#1d2a45"/>
    <path id="Path_30669" data-name="Path 30669" d="M0,0H3V3H0Z" transform="translate(1421 5455) rotate(-90)" fill="#1d2a45"/>
    <path id="Path_30668" data-name="Path 30668" d="M0,0H3V3H0Z" transform="translate(1427 5455) rotate(-90)" fill="#1d2a45"/>
    <path id="Path_30667" data-name="Path 30667" d="M0,0H3V3H0Z" transform="translate(1433 5455) rotate(-90)" fill="#1d2a45"/>
    <path id="Path_30666" data-name="Path 30666" d="M0,0H3V3H0Z" transform="translate(1439 5455) rotate(-90)" fill="#1d2a45"/>
    <path id="Path_30665" data-name="Path 30665" d="M0,0H3V3H0Z" transform="translate(1436 5452) rotate(-90)" fill="#1d2a45"/>
    <path id="Path_30664" data-name="Path 30664" d="M0,0H3V3H0Z" transform="translate(1436 5458) rotate(-90)" fill="#1d2a45"/>
    <path id="Path_30663" data-name="Path 30663" d="M0,0H3V3H0Z" transform="translate(1433 5449) rotate(-90)" fill="#1d2a45"/>
    <path id="Path_30662" data-name="Path 30662" d="M0,0H3V3H0Z" transform="translate(1433 5461) rotate(-90)" fill="#1d2a45"/>
  </g>
</svg>
