<svg xmlns="http://www.w3.org/2000/svg" width="22" height="25" viewBox="0 0 22 25">
  <path id="bag" d="M6.286,6.25V4.688a4.714,4.714,0,0,1,9.429,0V6.25h3.929A2.351,2.351,0,0,1,22,8.594V20.313A4.7,4.7,0,0,1,17.286,25H4.714A4.7,4.7,0,0,1,0,20.313V8.594A2.351,2.351,0,0,1,2.357,6.25Zm1.571,0h6.286V4.688a3.143,3.143,0,0,0-6.286,0Zm-5.5,1.562a.785.785,0,0,0-.786.781V20.313a3.135,3.135,0,0,0,3.143,3.125H17.286a3.137,3.137,0,0,0,3.143-3.125V8.594a.786.786,0,0,0-.786-.781H15.714v3.906a.786.786,0,0,1-1.571,0V7.812H7.857v3.906a.786.786,0,0,1-1.571,0V7.812Z" fill="#1d2a45"/>
</svg>
