<svg xmlns="http://www.w3.org/2000/svg" width="54.074" height="47.439" viewBox="0 0 54.074 47.439">
  <path id="bed" d="M49.757,53.167V37.8a5.811,5.811,0,0,0-5.8-5.8H9.122a5.813,5.813,0,0,0-5.8,5.8V53.167A7.453,7.453,0,0,0,0,59.366V77.61a.829.829,0,1,0,1.659,0v-5.8H51.415v5.8a.829.829,0,1,0,1.659,0V59.366A7.448,7.448,0,0,0,49.757,53.167ZM7.463,51.9a7.344,7.344,0,0,0-2.488.456V46.1A2.491,2.491,0,0,1,7.463,43.61H23.22A2.491,2.491,0,0,1,25.708,46.1v5.8Zm40.635.456A7.307,7.307,0,0,0,45.61,51.9H27.366V46.1a2.491,2.491,0,0,1,2.488-2.488H45.61A2.491,2.491,0,0,1,48.1,46.1ZM9.122,33.659h34.83A4.151,4.151,0,0,1,48.1,37.8v5.063a4.044,4.044,0,0,0-2.488-.916H29.854a4.073,4.073,0,0,0-3.317,1.788,4.09,4.09,0,0,0-3.317-1.788H7.463a4.061,4.061,0,0,0-2.488.912V37.8A4.151,4.151,0,0,1,9.122,33.659ZM1.659,70.147V59.366a5.811,5.811,0,0,1,5.8-5.8H45.61a5.811,5.811,0,0,1,5.8,5.8V70.147Z" transform="translate(0.5 -31.5)" fill="#1d2a45" stroke="#1d2a45" stroke-width="1"/>
</svg>
