<svg xmlns="http://www.w3.org/2000/svg" width="55.028" height="51.651" viewBox="0 0 55.028 51.651">
  <path id="briefcase" d="M48.963,10.13H40.521V4.221A4.222,4.222,0,0,0,36.3,0H17.728a4.222,4.222,0,0,0-4.221,4.221V10.13H5.065A5.066,5.066,0,0,0,0,15.2V45.586a5.066,5.066,0,0,0,5.065,5.065h43.9a5.065,5.065,0,0,0,5.065-5.065V15.2A5.066,5.066,0,0,0,48.963,10.13ZM15.2,4.221a2.537,2.537,0,0,1,2.533-2.533H36.3a2.537,2.537,0,0,1,2.533,2.533V10.13H15.2ZM52.34,45.586a3.381,3.381,0,0,1-3.377,3.377H5.065a3.381,3.381,0,0,1-3.377-3.377V15.2a3.381,3.381,0,0,1,3.377-3.377h43.9A3.381,3.381,0,0,1,52.34,15.2ZM36.3,26.075H31.235V21.01a1.688,1.688,0,0,0-1.688-1.688H24.482a1.688,1.688,0,0,0-1.688,1.688v5.065H17.728a1.688,1.688,0,0,0-1.688,1.688v5.065a1.688,1.688,0,0,0,1.688,1.688h5.065v5.065a1.688,1.688,0,0,0,1.688,1.688h5.065a1.688,1.688,0,0,0,1.688-1.688V34.517H36.3a1.688,1.688,0,0,0,1.688-1.688V27.763A1.751,1.751,0,0,0,36.3,26.075Zm0,6.754H29.547v6.754H24.482V32.828H17.728V27.763h6.754V21.01h5.065v6.754H36.3Z" transform="translate(0.5 0.5)" fill="#1d2a45" stroke="#1d2a45" stroke-width="1"/>
</svg>
