<svg xmlns="http://www.w3.org/2000/svg" width="51" height="51" viewBox="0 0 51 51">
  <path id="camera" d="M14.844,0a.781.781,0,0,1,0,1.563H3.906A2.344,2.344,0,0,0,1.563,3.906V14.844a.781.781,0,0,1-1.562,0V3.906A3.906,3.906,0,0,1,3.906,0ZM50,14.844a.781.781,0,0,1-1.562,0V3.906a2.341,2.341,0,0,0-2.344-2.344H35.156a.781.781,0,0,1,0-1.562H46.094A3.906,3.906,0,0,1,50,3.906ZM31.25,25A6.25,6.25,0,1,1,25,18.75,6.256,6.256,0,0,1,31.25,25ZM25,20.313A4.688,4.688,0,1,0,29.688,25,4.689,4.689,0,0,0,25,20.313ZM31.816,10.9l.605,1.6h3.516a4.689,4.689,0,0,1,4.688,4.688V32.813A4.689,4.689,0,0,1,35.938,37.5H14.063a4.689,4.689,0,0,1-4.687-4.687V17.188A4.689,4.689,0,0,1,14.063,12.5h3.516l.605-1.6a2.332,2.332,0,0,1,2.188-1.523h9.258A2.332,2.332,0,0,1,31.816,10.9ZM14.063,14.063a3.122,3.122,0,0,0-3.125,3.125V32.813a3.122,3.122,0,0,0,3.125,3.125H35.938a3.122,3.122,0,0,0,3.125-3.125V17.188a3.122,3.122,0,0,0-3.125-3.125h-4.6l-.977-2.617a.793.793,0,0,0-.732-.508H20.371a.793.793,0,0,0-.732.508l-.977,2.617ZM0,35.156a.781.781,0,0,1,1.563,0V46.094a2.341,2.341,0,0,0,2.344,2.344H14.844a.781.781,0,0,1,0,1.563H3.906A3.906,3.906,0,0,1,0,46.094ZM35.156,50a.781.781,0,0,1,0-1.562H46.094a2.338,2.338,0,0,0,2.344-2.344V35.156a.781.781,0,0,1,1.563,0V46.094A3.905,3.905,0,0,1,46.094,50Z" transform="translate(0.5 0.5)" fill="#1d2a45" stroke="#1d2a45" stroke-width="1"/>
</svg>
