<svg xmlns="http://www.w3.org/2000/svg" width="24" height="21" viewBox="0 0 24 21">
  <path id="car" d="M3.75,44.375A1.125,1.125,0,1,1,4.875,45.5,1.124,1.124,0,0,1,3.75,44.375Zm16.5,0a1.125,1.125,0,1,1-1.125-1.125A1.122,1.122,0,0,1,20.25,44.375ZM2.264,40.1,3.89,34.672A3.75,3.75,0,0,1,7.481,32h9.037a3.747,3.747,0,0,1,3.591,2.672L21.736,40.1A4.487,4.487,0,0,1,24,44v8.25a.75.75,0,1,1-1.5,0V50H1.5v2.25a.75.75,0,1,1-1.5,0V44A4.491,4.491,0,0,1,2.264,40.1ZM4,39.528a4.4,4.4,0,0,1,.5-.028h15a4.435,4.435,0,0,1,.5.028L18.675,35.1a2.251,2.251,0,0,0-2.156-1.6H7.481a2.251,2.251,0,0,0-2.156,1.6ZM1.5,44v4.5h21V44a3,3,0,0,0-1.983-2.822l-.019,0,0-.014A3.05,3.05,0,0,0,19.5,41H4.5a3.023,3.023,0,0,0-.992.169l0,.014-.022,0A3,3,0,0,0,1.5,44Z" transform="translate(0 -32)" fill="#1d2a45"/>
</svg>
