<svg xmlns="http://www.w3.org/2000/svg" width="20" height="20" viewBox="0 0 20 20">
  <g id="close" transform="translate(-2574 18450)">
    <path id="Path_30660" data-name="Path 30660" d="M0,0H4V4H0Z" transform="translate(2582 -18442)" fill="#fff"/>
    <path id="Path_30659" data-name="Path 30659" d="M0,0H4V4H0Z" transform="translate(2586 -18446)" fill="#fff"/>
    <path id="Path_30658" data-name="Path 30658" d="M0,0H4V4H0Z" transform="translate(2578 -18446)" fill="#fff"/>
    <path id="Path_30657" data-name="Path 30657" d="M0,0H4V4H0Z" transform="translate(2590 -18450)" fill="#fff"/>
    <path id="Path_30656" data-name="Path 30656" d="M0,0H4V4H0Z" transform="translate(2574 -18450)" fill="#fff"/>
    <path id="Path_30655" data-name="Path 30655" d="M0,0H4V4H0Z" transform="translate(2582 -18442)" fill="#fff"/>
    <path id="Path_30654" data-name="Path 30654" d="M0,0H4V4H0Z" transform="translate(2586 -18438)" fill="#fff"/>
    <path id="Path_30653" data-name="Path 30653" d="M0,0H4V4H0Z" transform="translate(2578 -18438)" fill="#fff"/>
    <path id="Path_30652" data-name="Path 30652" d="M0,0H4V4H0Z" transform="translate(2590 -18434)" fill="#fff"/>
    <path id="Path_30651" data-name="Path 30651" d="M0,0H4V4H0Z" transform="translate(2574 -18434)" fill="#fff"/>
  </g>
</svg>
