<svg xmlns="http://www.w3.org/2000/svg" width="52" height="52" viewBox="0 0 52 52">
  <path id="communicate" d="M36.833,28.329V11.482a3.675,3.675,0,0,0-3.671-3.669H11.481a3.674,3.674,0,0,0-3.669,3.669V28.329A3.674,3.674,0,0,0,11.481,32h2.357v4.461A2.139,2.139,0,0,0,15.251,38.5a2.081,2.081,0,0,0,.785.144,2.173,2.173,0,0,0,1.623-.741L22.88,32H33.164l0,0a3.671,3.671,0,0,0,3.671-3.666Zm-7.7-2.73H15.516a1.926,1.926,0,1,1,0-3.852H29.129a1.926,1.926,0,1,1,0,3.852Zm0-7.954H15.516a1.926,1.926,0,1,1,0-3.852H29.129a1.926,1.926,0,0,1,0,3.852Zm27,11.334H40.648a7.51,7.51,0,0,1-7.492,6.875H30.788V49.49a3.691,3.691,0,0,0,3.678,3.679H44.751l5.2,5.893a2.16,2.16,0,0,0,1.637.751,2.26,2.26,0,0,0,.79-.135,2.17,2.17,0,0,0,1.406-2.061V53.168h2.35a3.682,3.682,0,0,0,3.679-3.679V32.658a3.666,3.666,0,0,0-3.679-3.679ZM45.687,46.663H38.494a1.926,1.926,0,0,1,0-3.852h7.193a1.926,1.926,0,0,1,0,3.852Zm6.151,0a1.926,1.926,0,1,1,1.926-1.926A1.925,1.925,0,0,1,51.838,46.659Zm.27-7.951H38.494a1.926,1.926,0,0,1,0-3.852H52.108a1.926,1.926,0,0,1,0,3.852Z" transform="translate(-7.812 -7.813)" fill="#f6e343"/>
</svg>
