<svg xmlns="http://www.w3.org/2000/svg" width="41.911" height="77.958" viewBox="0 0 41.911 77.958">
  <path id="develop" d="M40.214,7a4.032,4.032,0,0,1,3.943,3.232l1.94,9.7a5.96,5.96,0,0,0,1.635,3.056,4.016,4.016,0,0,1,.753,4.641l-1.274,2.55a4.911,4.911,0,0,1-3.34,2.615v7.354a11.892,11.892,0,0,1-.695,4.01L31.124,77.9a8.519,8.519,0,0,1-5.33,5.217l-4.9,1.631a4.008,4.008,0,0,1-1.271.206H18.055a3.994,3.994,0,0,1-2.843-1.178l-4.3-4.3a4,4,0,0,1-1.178-2.843V72.837a.021.021,0,0,0-.006-.015L8.178,71.268A4,4,0,0,1,7,68.424V61.656a4.008,4.008,0,0,1,.675-2.23l4.06-6.089a4.429,4.429,0,0,0,.612-3.531L10,40.413a4.219,4.219,0,0,1,.319-2.906l2.138-4.279a.216.216,0,0,0,.023-.1A4.22,4.22,0,0,1,16.7,28.915h1.041a7.455,7.455,0,0,0,3.317-.783l6.3-3.151a5.166,5.166,0,0,0,2.608-3.007l1.4-4.216a11.218,11.218,0,0,1,1.31-2.678l4.194-6.29A4.013,4.013,0,0,1,40.214,7ZM19.628,80.958h.006l4.9-1.632a4.492,4.492,0,0,0,2.827-2.767L39.409,42.817a7.9,7.9,0,0,0,.462-2.665V31.835a2.923,2.923,0,0,1,2.92-2.92.936.936,0,0,0,.842-.52l1.274-2.55a.021.021,0,0,0,0-.024,9.947,9.947,0,0,1-2.729-5.1l-1.94-9.7a.022.022,0,0,0-.038-.007L36,17.3a7.218,7.218,0,0,0-.843,1.723l-1.4,4.216a9.2,9.2,0,0,1-4.613,5.32l-6.3,3.151a11.475,11.475,0,0,1-5.107,1.206H16.7a.216.216,0,0,0-.216.216,4.236,4.236,0,0,1-.445,1.885L13.9,39.294a.216.216,0,0,0-.016.149l2.348,9.393a8.429,8.429,0,0,1-1.165,6.72L11,61.645a.021.021,0,0,0,0,.011v6.768a.022.022,0,0,0,.006.015l1.554,1.554a4,4,0,0,1,1.178,2.843v3.805a.022.022,0,0,0,.006.015l4.3,4.3a.021.021,0,0,0,.015.006Z" transform="translate(-7 -7)" fill="#f6e343"/>
</svg>
