<svg xmlns="http://www.w3.org/2000/svg" width="18" height="24" viewBox="0 0 18 24">
  <path id="dna" d="M45.444,14.306l-1-.731a.75.75,0,1,0-.882,1.213l1,.73a9.625,9.625,0,0,1,1.124.982H36.27a9.48,9.48,0,0,1,1.125-.982L45.4,9.692A11,11,0,0,0,50,.75a.75.75,0,0,0-1.5,0c0,.252-.025.5-.045.75H33.545c-.02-.249-.045-.5-.045-.75a.75.75,0,1,0-1.5,0,11.089,11.089,0,0,0,4.555,8.944L39.725,12l-3.169,2.306A11.089,11.089,0,0,0,32,23.25a.72.72,0,0,0,.756.708.711.711,0,0,0,.744-.708c0-.252.025-.5.045-.75H48.456c.021.248.044.5.044.75a.75.75,0,0,0,1.5,0A11.085,11.085,0,0,0,45.444,14.306ZM48.228,3a9.62,9.62,0,0,1-1.307,3H35.078a9.593,9.593,0,0,1-1.307-3ZM37.4,8.48c-.366-.3-.731-.628-1.125-.98h9.375a9.48,9.48,0,0,1-1.125.982L41,11.072ZM33.771,21a9.62,9.62,0,0,1,1.307-3H46.923a9.617,9.617,0,0,1,1.307,3Z" transform="translate(-32)" fill="#1d2a45"/>
</svg>
