<svg xmlns="http://www.w3.org/2000/svg" width="20" height="22" viewBox="0 0 20 22">
  <path id="dodo" d="M17.473,6.388a5.1,5.1,0,0,1-.5.9,8.831,8.831,0,0,1-1.2,1.335l-.053.05c-1.261,1.067-1.82.94-1.945,1.425-.079.3.074.6.352.523.39-.1.541-.537,1.283-.926a10.544,10.544,0,0,1,4.32-.764A8.98,8.98,0,0,1,24.38,10.2a.988.988,0,0,0,.212.026c.218,0,.42-.1.747-.567a2.237,2.237,0,0,1,1.615-1.041,1.361,1.361,0,0,1,.758.238,3.2,3.2,0,0,1,1.1,3.761.287.287,0,0,1-.516.038l-.253-.439a3.438,3.438,0,0,1-.567,1.426.286.286,0,0,1-.294.1.29.29,0,0,1-.215-.229l-.124-.665a9.046,9.046,0,0,1-.588,1.344,5.477,5.477,0,0,1-2.843,3.317.328.328,0,0,1-.062.036l-.044.02-.052.026a8.851,8.851,0,0,0-3.445,4.013c-.19.373-.361.693-.5.952h.638a.613.613,0,0,1,.081.006h.7a.886.886,0,0,1,.6.242.76.76,0,0,1,.2.568.227.227,0,0,1-.226.223h0a.227.227,0,0,1-.222-.232A.315.315,0,0,0,21,23.125a.454.454,0,0,0-.274-.106h-.218a.561.561,0,0,1,.011.117.577.577,0,0,1-.574.579l-4.166,0a.578.578,0,0,1-.575-.579.628.628,0,0,1,.011-.117h-.276a.437.437,0,0,0-.276.108.314.314,0,0,0-.073.237.226.226,0,0,1-.222.232h0a.227.227,0,0,1-.226-.223.76.76,0,0,1,.2-.568.888.888,0,0,1,.6-.242H15.7a.615.615,0,0,1,.082-.006h1.99l.9-1.727a2.275,2.275,0,0,0-.1-2.022,2.961,2.961,0,0,0-1.326-.673l-.142-.047a5.9,5.9,0,0,1-2.427-1.231c-.05-.044-.1-.089-.146-.134a5.074,5.074,0,0,1-5.011-3.758c-.889-3.119,1.428-5.043,2.453-5.8l.006,0c.181-.133.356-.25.524-.358.211-.134.412-.256.6-.371a.5.5,0,0,0,.166-.546c-.177-.487-1.065-.311-1.468-.125a2.983,2.983,0,0,1-1.841.411l.11.15a.29.29,0,0,1-.216.48h0a.286.286,0,0,1-.2-.08,2.035,2.035,0,0,1-.11-2.8,1.4,1.4,0,0,1,1.119-.572,1.544,1.544,0,0,1,.716.18.291.291,0,0,1,.145.236V3.78a1.378,1.378,0,0,0,.579-.138c.52-.256.616-.552.9-.763a.29.29,0,0,1-.146-.19A.7.7,0,0,1,13.05,2.1a1.311,1.311,0,0,1,.881-.382c.026,0,.1-.007.206-.007a3.763,3.763,0,0,1,1.988.565,3.4,3.4,0,0,1,.564.392,2.971,2.971,0,0,1,.972,1.614,3.281,3.281,0,0,1-.188,2.1Z" transform="translate(-9.035 -1.715)" fill="#fff"/>
</svg>
