<svg xmlns="http://www.w3.org/2000/svg" width="52" height="52" viewBox="0 0 52 52">
  <path id="excellence" d="M9972.041,20098.838l-10.157-5.35-10.16,5.35-.03.016a1.222,1.222,0,0,1-.618.148,1.378,1.378,0,0,1-1.069-.545,1.151,1.151,0,0,1-.228-1.014l.01-.045,1.855-11.369-8.216-8.018a1.411,1.411,0,0,1-.342-1.5,1.25,1.25,0,0,1,1.069-.879l11.4-1.754,5.077-10.227.016-.018a1.318,1.318,0,0,1,1.2-.764h.055a1.371,1.371,0,0,1,1.237.777l5.073,10.32,11.354,1.658.044.006a1.252,1.252,0,0,1,1.074.879,1.419,1.419,0,0,1-.326,1.51l-8.227,8.01,1.945,11.346a1.377,1.377,0,0,1-.549,1.354l-.011.006a1.4,1.4,0,0,1-.821.268A1.49,1.49,0,0,1,9972.041,20098.838Zm-10.157-8.73,8.662,4.568-1.657-9.682,7.047-6.855-9.716-1.41-4.336-8.785-4.336,8.779-9.71,1.416,7.028,6.855-1.673,9.672,8.69-4.559v0Zm26-13.607-1.718-4.1-4.1-1.725a.54.54,0,0,1,0-.979l4.1-1.723,1.723-4.1a.654.654,0,0,1,.489-.307.536.536,0,0,1,.491.307l1.722,4.1,4.1,1.723a.518.518,0,0,1,.313.484.534.534,0,0,1-.312.494l-4.1,1.725-1.722,4.1a.658.658,0,0,1-.491.307A.544.544,0,0,1,9987.885,20076.5Zm-11.721-13.328-2.134-5.139-5.137-2.133a.708.708,0,0,1-.382-.619.69.69,0,0,1,.382-.621l5.143-2.137,2.133-5.137a.672.672,0,0,1,.619-.385.661.661,0,0,1,.618.385l2.134,5.137,5.137,2.137a.675.675,0,0,1,.386.615.687.687,0,0,1-.386.625l-5.137,2.133-2.134,5.139a.687.687,0,0,1-.618.385A.7.7,0,0,1,9976.164,20063.172Z" transform="translate(-9943.002 -20047.002)" fill="#ff671c"/>
</svg>
