<svg xmlns="http://www.w3.org/2000/svg" width="51.999" height="53.001" viewBox="0 0 51.999 53.001">
  <path id="experience" d="M1999.645,15291.992a3.41,3.41,0,0,0,.553-1.838v-1.678a16.305,16.305,0,0,0,14.059-.054h.054v1.731a3,3,0,0,0,.553,1.838,19.942,19.942,0,0,1-15.218,0Zm17.886-1.335a.5.5,0,0,1-.5-.5v-2.288a5.7,5.7,0,0,1,3.723-5.357,7.3,7.3,0,0,0,4.333,1.393,7.711,7.711,0,0,0,4.333-1.393,5.608,5.608,0,0,1,3.777,5.357v2.288a.493.493,0,0,1-.5.5Zm-35.833,0a.5.5,0,0,1-.5-.5v-2.288a5.745,5.745,0,0,1,3.781-5.357,7.3,7.3,0,0,0,4.333,1.393,7.711,7.711,0,0,0,4.333-1.393,5.489,5.489,0,0,1,3.719,5.357v2.288a.5.5,0,0,1-.5.5Zm27.727-6.307-2-1.171a.6.6,0,0,0-.445,0l-2,1.171a.722.722,0,0,1-1.052-.779l.445-2.287a.436.436,0,0,0-.111-.445l-1.723-1.562a.707.707,0,0,1,.388-1.228l2.334-.28c.111-.054.276-.111.334-.276l.944-2.123a.74.74,0,0,1,1.332,0l.944,2.123a.353.353,0,0,0,.334.276l2.333.28a.7.7,0,0,1,.388,1.228l-1.719,1.563a.428.428,0,0,0-.111.445l.445,2.287a.718.718,0,0,1-.7.865A.78.78,0,0,1,2009.425,15284.351Zm10.774-8.145a4.89,4.89,0,1,1,4.89,4.913A4.9,4.9,0,0,1,2020.2,15276.206Zm-35.776,0a4.89,4.89,0,1,1,4.89,4.913A4.9,4.9,0,0,1,1984.423,15276.206Zm31.446-1.9-2-1.171a.6.6,0,0,0-.445,0l-2,1.171a.723.723,0,0,1-1.055-.779l.445-2.288a.435.435,0,0,0-.111-.449l-1.723-1.562a.708.708,0,0,1,.388-1.229l2.334-.276c.115-.058.28-.111.334-.28l.944-2.118a.738.738,0,0,1,1.332,0l1,2.118a.356.356,0,0,0,.334.28l2.334.276a.708.708,0,0,1,.388,1.229l-1.723,1.562a.637.637,0,0,0-.165.449l.445,2.288a.716.716,0,0,1-.7.864A.78.78,0,0,1,2015.869,15274.311Zm-12.889,0-2-1.171a.58.58,0,0,0-.441,0l-2.057,1.171a.724.724,0,0,1-1.056-.779l.445-2.288a.435.435,0,0,0-.111-.449l-1.723-1.562a.707.707,0,0,1,.391-1.229l2.33-.276c.115-.058.28-.111.338-.28l.94-2.118a.741.741,0,0,1,1.336,0l1,2.118a.356.356,0,0,0,.334.28l2.334.276a.708.708,0,0,1,.388,1.229l-1.723,1.562a.441.441,0,0,0-.107.449l.445,2.288a.718.718,0,0,1-.7.864A.78.78,0,0,1,2002.98,15274.311Zm14.666-13.388a2.507,2.507,0,0,0,.33-1.566v-2.452a19.826,19.826,0,0,1,8.39,11.714,11.2,11.2,0,0,0-1.332-.111,7.075,7.075,0,0,0-2.168.338A16.665,16.665,0,0,0,2017.646,15260.923Zm-28.395,7.584a11.2,11.2,0,0,0-1.332.111,20.051,20.051,0,0,1,8.39-11.714v2.456a3.67,3.67,0,0,0,.388,1.563,16.674,16.674,0,0,0-5.22,7.922A6.811,6.811,0,0,0,1989.251,15268.507Zm10.34-8.647a.6.6,0,0,1-.56-.5v-2.287a5.606,5.606,0,0,1,3.781-5.3,7.677,7.677,0,0,0,8.667,0,5.618,5.618,0,0,1,3.777,5.3v2.287a.5.5,0,0,1-.5.5Zm2.721-14.45a4.888,4.888,0,1,1,4.886,4.912A4.9,4.9,0,0,1,2002.312,15245.409Z" transform="translate(-1981.199 -15240.5)" fill="#f6e343"/>
</svg>
