<svg xmlns="http://www.w3.org/2000/svg" width="47.998" height="45.002" viewBox="0 0 47.998 45.002">
  <path id="flexibility" d="M2302.479,15478.934v-7.863a10.764,10.764,0,0,0-10.661-10.824h-.96v3.729a1.588,1.588,0,0,1-.909,1.477,1.73,1.73,0,0,1-.707.155,1.531,1.531,0,0,1-1.01-.357l-7.125-5.77a1.562,1.562,0,0,1-.606-1.278,1.71,1.71,0,0,1,.606-1.274l7.125-5.719a1.524,1.524,0,0,1,1.667-.206,1.7,1.7,0,0,1,.909,1.48v3.729h.96a14.806,14.806,0,0,1,14.756,14.857v7.863a2.022,2.022,0,1,1-4.045,0Zm16.621-13.532a1.7,1.7,0,0,1-.909-1.48v-3.726h-.96a10.553,10.553,0,0,0-8.081,3.776,20.257,20.257,0,0,0-2.024-3.726,14.559,14.559,0,0,1,10.105-4.033h.96v-3.729a1.591,1.591,0,0,1,.909-1.48,1.552,1.552,0,0,1,1.671.2l7.125,5.719a1.626,1.626,0,0,1,.6,1.278,1.735,1.735,0,0,1-.6,1.278l-7.079,5.719a1.526,1.526,0,0,1-1.01.357A1.567,1.567,0,0,1,2319.1,15465.4Zm-16.621-9.853v-9.192h-3.687a1.678,1.678,0,0,1-1.465-.921,1.6,1.6,0,0,1,.2-1.687l5.762-7.2a1.621,1.621,0,0,1,2.475,0l5.711,7.2a1.572,1.572,0,0,1,.2,1.687,1.682,1.682,0,0,1-1.465.921h-3.691v9.192a21.684,21.684,0,0,0-2.02,1.632C2303.843,15456.621,2303.186,15456.058,2302.479,15455.549Z" transform="translate(-2280.5 -15435.976)" fill="#f6e343"/>
</svg>
