<svg xmlns="http://www.w3.org/2000/svg" width="21.002" height="21" viewBox="0 0 21.002 21">
  <path id="hand" d="M41.918,32.827V31.493h1.333V34.16H41.918Zm8,1.333v9.333h1.333V34.16ZM48.585,44.827v2.667h1.333v-4H48.585Zm-1.333,4H36.584V47.493H35.25V50.16H48.585V47.493H47.252ZM45.918,34.16h1.334V32.827h1.333V31.493H45.918Zm-8,0h1.333V31.493H37.917Zm0-2.667V30.16H35.25v1.333Zm8,0V30.16H43.251v1.333Zm4,2.667V32.827H48.585V34.16Zm-8-2.667V30.16H39.251v1.333Zm-9.334,8v-4H31.25V42.16h1.333Zm1.333,2.667H32.583v2.667h1.333Zm1.333,2.667H33.917v2.667H35.25Zm-1.333-8v2.667H35.25v-8H33.917V34.16H32.583v1.333h1.333Z" transform="translate(-30.75 -29.66)" fill="#1d2a45" stroke="#1d2a45" stroke-width="1"/>
</svg>
