<svg xmlns="http://www.w3.org/2000/svg" width="58.989" height="59" viewBox="0 0 58.989 59">
  <path id="head" d="M58.725,31.689C56.3,26.258,53.136,14.2,50.3,10.164A23.984,23.984,0,0,0,30.711,0H23.106C11.064,0,.532,9.234.071,21.261A22.066,22.066,0,0,0,7.423,38.592l-.1,18.564A1.843,1.843,0,0,0,9.163,59a1.757,1.757,0,0,0,1.74-1.844V36.933L9.886,35.838A18.4,18.4,0,0,1,3.751,21.4c.375-9.76,9.041-17.712,19.24-17.712H30.61a20.323,20.323,0,0,1,16.582,8.6c1.44,2.06,3.238,7.692,4.882,12.226,1.223,3.315,2.283,6.427,3.182,8.674H49.829a1.844,1.844,0,0,0-1.844,1.844V44.25A3.7,3.7,0,0,1,44.3,47.938H35.08a1.909,1.909,0,0,0-1.844,1.838l-.1,7.381A1.824,1.824,0,0,0,34.871,59a1.843,1.843,0,0,0,1.844-1.844l0-5.531h7.374a7.264,7.264,0,0,0,7.271-7.271V36.875h3.584C58.022,36.875,59.808,34.121,58.725,31.689ZM38.086,12.584C36.487,11.245,32.6,9.3,27.7,14.254c-4.912-4.955-8.8-3.01-10.4-1.671a6.973,6.973,0,0,0-.49,10.256l9.737,9.868a1.6,1.6,0,0,0,2.276,0l9.766-9.868A6.974,6.974,0,0,0,38.086,12.584Zm-2.1,7.663-8.3,8.369-8.274-8.369a3.283,3.283,0,0,1,.23-4.84c1.584-1.325,3.6-.389,4.437.432L27.7,19.5l3.616-3.659c.821-.835,2.837-1.757,4.423-.432A3.3,3.3,0,0,1,35.989,20.247Z" transform="translate(-0.054)" fill="#f6e343"/>
</svg>
