<svg xmlns="http://www.w3.org/2000/svg" width="28" height="25" viewBox="0 0 28 25">
  <path id="house" d="M15.171,7.813a1.558,1.558,0,0,1,1.556,1.562v1.953h1.945a1.558,1.558,0,0,1,1.556,1.563v2.344A1.558,1.558,0,0,1,18.671,16.8H16.726V18.75a1.558,1.558,0,0,1-1.556,1.563H12.837a1.558,1.558,0,0,1-1.556-1.563V16.8H9.336A1.558,1.558,0,0,1,7.78,15.234V12.891a1.558,1.558,0,0,1,1.556-1.563h1.945V9.375a1.558,1.558,0,0,1,1.556-1.562Zm-2.334,5.078h-3.5v2.344h3.5V18.75h2.334V15.234h3.5V12.891h-3.5V9.375H12.837Zm14.908-.977a.747.747,0,0,1,.024,1.1.691.691,0,0,1-1.055.024L24.9,11.431v9.663A3.9,3.9,0,0,1,21.005,25H7a3.9,3.9,0,0,1-3.89-3.906V11.431L1.293,13.042a.741.741,0,0,1-1.1-.024.782.782,0,0,1,.069-1.1L13.488.2a.777.777,0,0,1,1.031,0ZM7,23.438h14a2.339,2.339,0,0,0,2.334-2.344v-11L14,1.823l-9.336,8.27v11A2.339,2.339,0,0,0,7,23.438Z" transform="translate(0)" fill="#1d2a45"/>
</svg>
