<svg xmlns="http://www.w3.org/2000/svg" width="26" height="23" viewBox="0 0 26 23">
  <path id="leaf" d="M24.687,32.479a1,1,0,0,0-.2-.273.8.8,0,0,0-.674-.2.8.8,0,0,0-.575.408,7.107,7.107,0,0,1-6.4,3.688H13.354A8.592,8.592,0,0,0,4.93,45.655,15.348,15.348,0,0,0,.02,54a.755.755,0,0,0,.624.929A.208.208,0,0,0,.815,55a.813.813,0,0,0,.793-.65A13.7,13.7,0,0,1,5.331,47.51a8.515,8.515,0,0,0,.55,1.325h0a8.466,8.466,0,0,0,7.47,4.52,7.659,7.659,0,0,0,.867-.047C21.046,52.806,26,46.753,26,38.909A16.381,16.381,0,0,0,24.687,32.479ZM14.022,51.672a6.207,6.207,0,0,1-.717.04,6.862,6.862,0,0,1-6.672-5.384,13.441,13.441,0,0,1,8.206-2.83h2.18a.808.808,0,0,0,.813-.775.848.848,0,0,0-.813-.821h-2.18A15.011,15.011,0,0,0,6.5,44.457a7.018,7.018,0,0,1,6.81-6.664h3.482a8.844,8.844,0,0,0,6.9-3.178,13.254,13.254,0,0,1,.692,4.293C24.377,45.87,20.055,51.235,14.022,51.672Z" transform="translate(-0.002 -31.999)" fill="#1d2a45"/>
</svg>
