<svg xmlns="http://www.w3.org/2000/svg" width="33.939" height="38.182" viewBox="0 0 33.939 38.182">
  <path id="lock" d="M29.091,14.343H26.667V9.5A9.585,9.585,0,0,0,16.97,0a9.628,9.628,0,0,0-9.7,9.5v4.848H4.848A4.817,4.817,0,0,0,0,19.125V33.4a4.815,4.815,0,0,0,4.848,4.781H29.091A4.815,4.815,0,0,0,33.939,33.4V19.125A4.82,4.82,0,0,0,29.091,14.343ZM10.909,9.562a6.061,6.061,0,0,1,12.121,0v4.781H10.909ZM30.3,33.468a1.205,1.205,0,0,1-1.212,1.2H4.848a1.205,1.205,0,0,1-1.212-1.2V19.125a1.205,1.205,0,0,1,1.212-1.2H29.091a1.205,1.205,0,0,1,1.212,1.2ZM16.97,22.71A1.806,1.806,0,0,0,15.152,24.5v3.586a1.821,1.821,0,0,0,3.636,0V24.5A1.806,1.806,0,0,0,16.97,22.71Z"/>
</svg>
