<svg xmlns="http://www.w3.org/2000/svg" width="47.999" height="42" viewBox="0 0 47.999 42">
  <path id="love" d="M9968.994,20091a2.567,2.567,0,0,1-1.841-.8l-18.476-19.146a12.968,12.968,0,0,1-2.864-4.578,13.449,13.449,0,0,1,.448-10.3,12.775,12.775,0,0,1,3.268-4.326,11.467,11.467,0,0,1,3.656-2.145,12.157,12.157,0,0,1,4.085-.7,13.323,13.323,0,0,1,9.5,4.07l1.513,1.559.716.74,2.234-2.3a13.273,13.273,0,0,1,9.49-4.07h.136l.073-.006h.009c.048,0,.093,0,.136,0a10.913,10.913,0,0,1,7.307,2.834l.02.02a12.8,12.8,0,0,1,3.3,4.313,13.082,13.082,0,0,1,1.271,5.078,13.348,13.348,0,0,1-.792,5.225,13.014,13.014,0,0,1-2.869,4.6l-18.472,19.143A2.565,2.565,0,0,1,9968.994,20091Zm-16.812-36.645h0l-.277.236a9.133,9.133,0,0,0-3.263,6.627,10.213,10.213,0,0,0,.615,4,9.411,9.411,0,0,0,2.022,3.309l17.009,17.619.716.74,17.726-18.365a9.938,9.938,0,0,0,2.647-7.211,9.283,9.283,0,0,0-3.258-6.717,7.876,7.876,0,0,0-5.279-1.967,10.205,10.205,0,0,0-7,2.971l-4.836,5-4.83-5a10.029,10.029,0,0,0-6.975-2.971h-.02a7.834,7.834,0,0,0-4.987,1.725Z" transform="translate(-9944.999 -20048.998)" fill="#9f1a97"/>
</svg>
