<svg xmlns="http://www.w3.org/2000/svg" width="20" height="20" viewBox="0 0 20 20">
  <path id="madagascar" d="M21.8,6.8a5.384,5.384,0,0,0-1.881.331,5.9,5.9,0,0,0-4.369-1.581,5.9,5.9,0,0,0-4.369,1.581A5.244,5.244,0,0,0,9.3,6.8c-2.1,0-3.75,1.1-3.75,2.5,0,1.256,1.332,2.268,3.125,2.463v.662A1.881,1.881,0,0,0,10.554,14.3h3.088l-.587,10.587a.621.621,0,0,0,.625.663h3.749a.621.621,0,0,0,.625-.663L17.467,14.3h3.088a1.881,1.881,0,0,0,1.875-1.876v-.662c1.794-.193,3.125-1.206,3.125-2.463,0-1.4-1.651-2.5-3.75-2.5Zm-11.25,6.251a.628.628,0,0,1-.625-.626v-.662a4.422,4.422,0,0,0,2.194-.8,6.573,6.573,0,0,0,2.806.813v1.275Zm10.625-.625h0a.628.628,0,0,1-.625.626H16.179V11.78a6.574,6.574,0,0,0,2.806-.813,4.454,4.454,0,0,0,2.194.8Z" transform="translate(-5.554 -5.554)" fill="#fff"/>
</svg>
