<svg xmlns="http://www.w3.org/2000/svg" width="26" height="20" viewBox="0 0 26 20">
  <path id="money" d="M17.333,41.962C17.333,44.636,15.51,47,13,47s-4.333-2.366-4.333-5.04c0-2.634,1.824-5,4.333-5S17.333,39.328,17.333,41.962ZM13,45.574c1.476,0,2.889-1.473,2.889-3.612,0-2.1-1.413-3.572-2.889-3.572s-2.889,1.473-2.889,3.572C10.111,44.1,11.524,45.574,13,45.574ZM0,49.426V35.6a1.7,1.7,0,0,1,2.2-1.49c3.6.972,7.2.065,10.8-.843,3.927-.99,7.854-1.98,11.781-.53A1.932,1.932,0,0,1,26,34.576V48.409A1.7,1.7,0,0,1,23.8,49.9c-3.6-.973-7.2-.067-10.8.839-3.968.991-7.895,1.982-11.783.531A1.929,1.929,0,0,1,0,49.426ZM4.333,35.89v.018a10.918,10.918,0,0,1-2.517-.464.725.725,0,0,0-.311.094c-.04.027-.057.049-.1.054l.041,0v3.192A2.874,2.874,0,0,0,4.333,35.93ZM1.444,47.359v2.067a.505.505,0,0,0,.278.5,12.021,12.021,0,0,0,2.611.589v-.3A2.874,2.874,0,0,0,1.444,47.359Zm0-1.429a4.285,4.285,0,0,1,4.333,4.286v.353a31.907,31.907,0,0,0,6.378-1.089l.587-.147a32.8,32.8,0,0,1,7.48-1.277,4.344,4.344,0,0,1,4.333-4.308V38.033a4.26,4.26,0,0,1-4.333-4.286v-.315a29.366,29.366,0,0,0-6.378,1.092l-.587.148a32.823,32.823,0,0,1-7.52,1.276,4.217,4.217,0,0,1-4.293,4.228ZM24.5,48.467a.228.228,0,0,0,.059-.054h0v-3.2a2.876,2.876,0,0,0-2.889,2.857V48.1a13.5,13.5,0,0,1,2.519.424.394.394,0,0,0,.311-.054ZM24.556,36.6V34.576a.511.511,0,0,0-.28-.5,10.237,10.237,0,0,0-2.609-.589v.265A2.85,2.85,0,0,0,24.556,36.6Z" transform="translate(0 -32.002)" fill="#1d2a45"/>
</svg>
