<svg xmlns="http://www.w3.org/2000/svg" width="15.996" height="24" viewBox="0 0 15.996 24">
  <path id="paris" d="M-4272.288,18373.5a4.088,4.088,0,0,0-3.91-4.043,4.092,4.092,0,0,0-3.915,4.043h-4.085a31.957,31.957,0,0,0,3.712-5.963h-.766a.384.384,0,0,1-.374-.377v-1.061a.389.389,0,0,1,.374-.383h10.057a.385.385,0,0,1,.369.383v1.061a.38.38,0,0,1-.369.377h-.771a30.709,30.709,0,0,0,3.763,5.963Zm-2.918-8.867-.521-3.131h-.991l-.549,3.131h-2.08a29.247,29.247,0,0,0,.945-3.131h-.719a.389.389,0,0,1-.374-.383v-1.061a.39.39,0,0,1,.374-.379h5.746a.377.377,0,0,1,.4.379v1.061a.389.389,0,0,1-.374.383h-.715c.3,1.135.618,2.172.941,3.131Zm-2.527-6.064c.245-1.309.443-2.729.59-4.242a.7.7,0,0,1-.59-.709v-1.514a.755.755,0,0,1,.743-.76h.221v-1.287a.556.556,0,0,1,.544-.557.556.556,0,0,1,.544.557v1.264h.226a.754.754,0,0,1,.742.756v1.518a.734.734,0,0,1-.595.732c.147,1.49.346,2.934.595,4.242Z" transform="translate(4284.198 -18349.5)" fill="#fff"/>
</svg>
