<svg xmlns="http://www.w3.org/2000/svg" width="96.744" height="74.4" viewBox="0 0 96.744 74.4">
  <path id="quote" d="M28.016,12.4C4.343,52.982,3.441,60.873,3.667,65.833,3.667,82.516,15.616,86.8,23.732,86.8,35,86.8,43.8,78.909,43.8,67.185A17.977,17.977,0,0,0,31.623,49.6l17.36-37.2ZM83.252,49.6l17.135-37.2H79.419C55.972,52.982,55.07,60.873,55.07,65.833,55.07,82.516,67.019,86.8,75.361,86.8c11.273,0,19.84-7.891,19.84-19.615C95.2,58.393,90.467,52.305,83.252,49.6Z" transform="translate(-3.643 -12.4)" fill="#f6e343"/>
</svg>
