<svg xmlns="http://www.w3.org/2000/svg" width="58.001" height="45.998" viewBox="0 0 58.001 45.998">
  <path id="respect" d="M9959.561,20095a.978.978,0,0,1-.848-.484l-.746-1.275a.991.991,0,0,1-.1-.752.952.952,0,0,1,.46-.59l5.7-3.273H9975.8a3.471,3.471,0,0,0,3.485-3.449v-1.711h1.74a3.062,3.062,0,0,0,3.057-3.061v-5.02h2.385a1.166,1.166,0,0,0,1.15-1.23v-2.939a1.252,1.252,0,0,0-.9-1.2l-.126-.035h-10.158v1.893a6.891,6.891,0,0,1-6.905,6.859c-.2,0-.436-.012-.721-.035a6.653,6.653,0,0,1-4.443-2.406,7.57,7.57,0,0,1-1.756-4.848v-4.67l-3.752,2.254a3.451,3.451,0,0,0-1.68,2.961v5.387l-10.042,5.814a.954.954,0,0,1-.489.127.98.98,0,0,1-.857-.5l-.646-1.246-.016-.029a.952.952,0,0,1-.091-.742v-.02a.943.943,0,0,1,.459-.574l7.884-4.516.5-.287v-3.424a6.867,6.867,0,0,1,.9-3.391,6.949,6.949,0,0,1,2.461-2.512l5.311-3.152.358-.211.1-.4a6.412,6.412,0,0,1,2.977-4.07l2.966-1.941a9.857,9.857,0,0,1,5.22-1.4h8.71l10.174-5.754,0-.006a.958.958,0,0,1,.479-.131,1,1,0,0,1,.862.5l.721,1.275a1.01,1.01,0,0,1-.3,1.342l-10.949,6.184h-9.624a6.655,6.655,0,0,0-3.379.963l-3.167,1.836-.025.016a3.442,3.442,0,0,0-1.614,2.91v7.924a3.411,3.411,0,0,0,.988,2.41,3.3,3.3,0,0,0,2.381,1.023,3.332,3.332,0,0,0,2.4-1.008,3.448,3.448,0,0,0,.973-2.426v-5.393H9986.3a4.664,4.664,0,0,1,4.509,3.445l.338,1.256,9.457-5.473a1.051,1.051,0,0,1,.51-.131.966.966,0,0,1,.848.479l.065.121.55,1.074.07.133.1.1a.779.779,0,0,1,.252.625l0,.006a.8.8,0,0,1-.454.545l-11.237,6.49-.317.182-.121.344a4.672,4.672,0,0,1-2.759,2.779l-.65.242v1.645a6.353,6.353,0,0,1-1.241,3.777,6.478,6.478,0,0,1-3.233,2.359l-.483.162-.156.49a6.953,6.953,0,0,1-6.623,4.846h-10.758l-4.883,2.814A1.106,1.106,0,0,1,9959.561,20095Z" transform="translate(-9945 -20049)" fill="#19d3c5"/>
</svg>
