<svg xmlns="http://www.w3.org/2000/svg" width="28" height="22" viewBox="0 0 28 22">
  <path id="road" d="M19.377,45.357a.79.79,0,0,1-1.581,0V40.643a.79.79,0,0,1,1.581,0ZM23.644,32a3.157,3.157,0,0,1,2.969,2.064l5.779,15.712A3.148,3.148,0,0,1,29.424,54H7.75a3.146,3.146,0,0,1-2.969-4.223l5.778-15.712A3.157,3.157,0,0,1,13.528,32ZM6.266,50.317A1.573,1.573,0,0,0,7.75,52.429H17.8V50.071a.79.79,0,0,1,1.581,0v2.357H29.424a1.573,1.573,0,0,0,1.482-2.112L25.131,34.6a1.58,1.58,0,0,0-1.487-1.032H19.377v2.357a.79.79,0,0,1-1.581,0V33.571H13.528A1.58,1.58,0,0,0,12.041,34.6Z" transform="translate(-4.586 -32)" fill="#1d2a45"/>
</svg>
