<svg xmlns="http://www.w3.org/2000/svg" width="24" height="26" viewBox="0 0 24 26">
  <path id="shield" d="M38.525,4.25,28.925.187a2.368,2.368,0,0,0-1.845,0L17.48,4.25A2.42,2.42,0,0,0,16,6.454C16,19.571,25.47,26,27.955,26,30.46,26,40,19.668,40,6.454A2.423,2.423,0,0,0,38.525,4.25ZM38.4,6.515c0,11.441-8.31,17.86-10.39,17.86-2.14-.046-10.4-6.49-10.4-17.875a.813.813,0,0,1,.488-.749l9.6-4.062A.8.8,0,0,1,28,1.624a.752.752,0,0,1,.306.064l9.6,4.062A.809.809,0,0,1,38.4,6.515ZM28,7.719a2.841,2.841,0,0,0-.8,5.555v3.789a.8.8,0,1,0,1.6,0V13.274A2.842,2.842,0,0,0,28,7.719Zm0,4.062a1.219,1.219,0,1,1,1.2-1.219A1.212,1.212,0,0,1,28,11.781Z" transform="translate(-16)" fill="#1d2a45"/>
</svg>
