<svg xmlns="http://www.w3.org/2000/svg" width="58.063" height="46.838" viewBox="0 0 58.063 46.838">
  <path id="shirt" d="M55.874,11.092,43.788,1.549A6.936,6.936,0,0,0,39.311,0H17.905a7.259,7.259,0,0,0-4.471,1.547L1.348,11.091A3.514,3.514,0,0,0,.786,16.07L5.26,21.588a3.621,3.621,0,0,0,5.045.543l3.3-2.8V40.824a5,5,0,0,0,4.933,5.014H38.512a4.951,4.951,0,0,0,4.933-5.014v-21.3l3.321,2.621a3.61,3.61,0,0,0,5.028-.554l4.474-5.518a3.477,3.477,0,0,0,.764-2.6A2.471,2.471,0,0,0,55.874,11.092ZM35.023,1.432a6.41,6.41,0,0,1-12.748,0ZM55.4,15.175l-4.474,5.518a2.172,2.172,0,0,1-3.024.33L43.42,17.486a.726.726,0,0,0-.758-.083.718.718,0,0,0-.4.645V40.824a3.569,3.569,0,0,1-3.5,3.581H18.622a3.517,3.517,0,0,1-3.5-3.581V17.78a.719.719,0,0,0-.414-.651,1.859,1.859,0,0,0-.383-.066.725.725,0,0,0-.464.169L9.4,21.017a2.169,2.169,0,0,1-3.024-.328L1.9,15.175a2.066,2.066,0,0,1-.456-1.54,2.1,2.1,0,0,1,.792-1.417L14.322,2.674a5.8,5.8,0,0,1,3.583-1.242h2.9a7.877,7.877,0,0,0,15.69,0h2.9a5.812,5.812,0,0,1,3.584,1.239l12.086,9.544a2.1,2.1,0,0,1,.792,1.417A2.063,2.063,0,0,1,55.4,15.175Z" transform="translate(0.503 0.5)" fill="#1d2a45" stroke="#1d2a45" stroke-width="1"/>
</svg>
