<svg xmlns="http://www.w3.org/2000/svg" width="20" height="24" viewBox="0 0 20 24">
  <path id="statue" d="M22.156,13A1.938,1.938,0,0,0,24.1,10.964,4.455,4.455,0,0,0,21.677,7.5c.939,2.135-1.3,1.755-1.3,3.659A1.746,1.746,0,0,0,22.154,13ZM26.3,17.882a5.044,5.044,0,0,1,6.011-.066c.692.513,1.795.034,1.811-.414-.017-.53-1.169-.628-1.763-.7-.445-.049-.511-.447-.247-.762.872-1.01,1.351-1.92,1.136-2.169-.3-.248-1.366.348-2.536,1.507a.447.447,0,0,1-.708-.365c-.049-1.589-.346-2.714-.724-2.714-.395,0-.675,1.125-.724,2.731a.453.453,0,0,1-.692.38c-1.186-1.125-2.257-1.721-2.519-1.49-.247.282.313,1.258,1.269,2.317.23.248.214.6-.165.645-.543.083-1.91.083-1.943.679.017.447,1.136.944,1.795.414ZM39.677,28.856,36.8,26.009c-.428-.431-.428-.431-.857,0l-1.795,1.838c-.214-4.006-2.668-4.121-5.17-4.121a4.063,4.063,0,0,1-3.046-2.02,1.353,1.353,0,0,0-1.186-.463,11.333,11.333,0,0,1-1.269-5.562h.23c.758,0,.774,0,.774-.7V14.4c0-.679,0-.679-.774-.679H20.738c-.741,0-.741,0-.741.679v.579c0,.7,0,.7.741.7H21a17.629,17.629,0,0,0,1.778,7.912c.1,2.152.543,3.973,2.01,5.148V31.5H37.98l1.7-1.772c.428-.447.428-.447,0-.877ZM26.948,18.462a.536.536,0,0,0-.247.5c.049,2.3,1.136,3.856,2.618,3.856,1.465,0,2.6-1.606,2.6-3.939a.536.536,0,0,0-.247-.5,4.4,4.4,0,0,0-4.727.083Z" transform="translate(-19.997 -7.505)" fill="#fff"/>
</svg>
