<svg xmlns="http://www.w3.org/2000/svg" width="24.001" height="18.4" viewBox="0 0 24.001 18.4">
  <path id="taj-mahal" d="M-4298,18289.4v-1.543h1v-10.8h-.5v-.514h.5v-.771a1.018,1.018,0,0,1,1-1.027,1.017,1.017,0,0,1,1,1.027v.771h.5v.514h-.5v10.8h18v-10.8h-.5v-.514h.5v-.771a1.017,1.017,0,0,1,1-1.027,1.018,1.018,0,0,1,1,1.027v.771h.5v.514h-.5v10.8h1v1.543Zm13.949-2.461v-3.957a1.72,1.72,0,0,0-1.9-1.7h-.151a1.719,1.719,0,0,0-1.9,1.7v3.957h-6v-8.225h15.95v8.225Zm2.052-2.57v1.547h2.5v-1.547a1.255,1.255,0,0,0-1.249-1.285A1.252,1.252,0,0,0-4282,18284.371Zm-10.5,0v1.547h2.5v-1.547a1.256,1.256,0,0,0-1.253-1.285A1.255,1.255,0,0,0-4292.5,18284.371Zm10.5-3.6v1.541h2.5v-1.541a1.255,1.255,0,0,0-1.249-1.285A1.252,1.252,0,0,0-4282,18280.773Zm-10.5,0v1.541h2.5v-1.541a1.256,1.256,0,0,0-1.253-1.285A1.255,1.255,0,0,0-4292.5,18280.773Zm-.647-2.57a.24.24,0,0,1-.252-.258.242.242,0,0,1,.252-.258h.248v-.307c0-.822.652-1.234,1.45-1.234h.051c.8,0,1.45.412,1.45,1.234v.307h.5v-1.8a3.568,3.568,0,0,1,3-3.549v-1.129c0-.256.2-.205.45-.205h.1c.252,0,.45-.051.45.205v1.129a3.572,3.572,0,0,1,3,3.549v1.8h.5v-.307c0-.822.647-1.234,1.446-1.234h.051c.8,0,1.45.412,1.45,1.234v.307h.252a.239.239,0,0,1,.248.258.237.237,0,0,1-.248.258Z" transform="translate(4298 -18271.002)" fill="#fff"/>
</svg>
