<svg xmlns="http://www.w3.org/2000/svg" width="101.901" height="145.393" viewBox="0 0 101.901 145.393">
  <g id="tir" transform="translate(-295.762 421.689)">
    <path id="Path_1" data-name="Path 1" d="M383.725-417.641l-7.392-1.739-15.436-1.3-13.7,1.3-12.392,3.7-11.957,7.609-10,10-8.479,12.827-4.783,12.392-2.826,13.914v12.827l2.826,13.044,3.261,6.957,4.783,5.87,12.61,7.174,14.566,2.174,15-3.044,13.044-10v-14.349l-8.479-4.131-9.349-1.3L332.852-340.9l-5.435,11.74,1.739,8.914,2.391,7.174,3.261,5.218,4.783,3.7,9.131,7.827,9.783,5.87,7.827,2.391s7.5,2.446,10,2.826" fill="none" stroke="#fff" stroke-width="2" stroke-dasharray="10 7"/>
    <path id="Path_2" data-name="Path 2" d="M381.551-289.805l6.087,6.3-6.087,6.522" fill="none" stroke="#fff" stroke-width="2"/>
    <path id="Path_3" data-name="Path 3" d="M394.932-418.9l-4.855,2.655,1.593,4.7,5.993-2.5Z" fill="#fff"/>
  </g>
</svg>
