<svg xmlns="http://www.w3.org/2000/svg" width="44" height="44" viewBox="0 0 44 44">
  <path id="tool" d="M18.746,13.978,35.284,30.568a8.562,8.562,0,0,1,8.895,1.951,8.106,8.106,0,0,1,1.529,9.341l-5.281-5.437c-2.641-2.649-6.671,1.395-4.03,4.042l5.42,5.437a8.366,8.366,0,0,1-11.257-10.6L14.023,18.717a8.237,8.237,0,0,1-8.895-1.951A8.377,8.377,0,0,1,3.459,7.424l5.42,5.437c2.641,2.649,6.671-1.395,4.03-4.042l-5.42-5.3A8.041,8.041,0,0,1,16.8,5.056a8.627,8.627,0,0,1,1.945,8.922ZM3.875,39.213,17.356,25.689l6.116,6.135L9.991,45.348C5.961,49.39-.155,43.257,3.875,39.213ZM27.362,19l7.228-7.25L38.2,6.032l5.281-3.206,2.78,2.649L42.93,10.912,37.37,14.4l-7.365,7.388L27.364,19Z" transform="translate(-2.556 -2.671)" fill="#f6e343" fill-rule="evenodd"/>
</svg>
