<svg xmlns="http://www.w3.org/2000/svg" width="22.766" height="18.627" viewBox="0 0 22.766 18.627">
  <path id="twitter" d="M22.72,5.588a9.456,9.456,0,0,1-2.679.739,4.723,4.723,0,0,0,2.053-2.6,9.7,9.7,0,0,1-2.968,1.131,4.645,4.645,0,0,0-5.607-.933,4.709,4.709,0,0,0-2.345,5.211A13.18,13.18,0,0,1,1.555,4.242,4.648,4.648,0,0,0,.922,6.607,4.7,4.7,0,0,0,3,10.515,4.614,4.614,0,0,1,.884,9.93v.057A4.7,4.7,0,0,0,4.626,14.6a4.662,4.662,0,0,1-2.1.082A4.692,4.692,0,0,0,6.9,17.943a9.33,9.33,0,0,1-5.788,2.006A9.2,9.2,0,0,1,0,19.885,13.267,13.267,0,0,0,20.444,8.641c0-.2,0-.4-.015-.6a9.377,9.377,0,0,0,2.334-2.432Z" transform="translate(0.003 -3.37)" fill="#1d2a45"/>
</svg>
