<svg xmlns="http://www.w3.org/2000/svg" width="26" height="23" viewBox="0 0 26 23">
  <path id="umbrella" d="M12.96,13.82a.716.716,0,0,0-.682.72v6.48a1.444,1.444,0,0,1-2.889,0V20.3a.722.722,0,0,0-1.444,0v.72a2.88,2.88,0,0,0,2.848,2.88,2.95,2.95,0,0,0,2.93-2.88V14.54A.733.733,0,0,0,12.96,13.82Zm13.027-.32A13.169,13.169,0,0,0,13.722,3.06V1.58a.724.724,0,0,0-1.444,0V3.058A13.158,13.158,0,0,0,.013,13.5a.552.552,0,0,0,.472.684.537.537,0,0,0,.371-.173A4.431,4.431,0,0,1,3.95,12.361c1.379,0,2.757,1.025,4.066,3.316a.52.52,0,0,0,.442.306.532.532,0,0,0,.449-.306c.912-1.591,2.027-3.3,4.054-3.3,2.641,0,3.981,3.1,4.094,3.294a.532.532,0,0,0,.449.306.52.52,0,0,0,.442-.306c1.268-2.29,2.693-3.306,4.07-3.306a4.275,4.275,0,0,1,3.09,1.641.543.543,0,0,0,.374.175A.552.552,0,0,0,25.987,13.5Zm-3.932-2.57c-1.642,0-3.142.912-4.475,2.719A5.593,5.593,0,0,0,13,10.942a5.384,5.384,0,0,0-4.518,2.734C7.105,11.844,5.6,10.922,3.95,10.922a4.523,4.523,0,0,0-1.7.338A11.982,11.982,0,0,1,12.692,4.474c.05,0,.569,0,.625,0a11.918,11.918,0,0,1,10.427,6.791A4.506,4.506,0,0,0,22.055,10.931Z" transform="translate(0 -0.9)" fill="#1d2a45"/>
</svg>
