<svg xmlns="http://www.w3.org/2000/svg" width="28" height="18" viewBox="0 0 28 18">
  <path id="video" d="M27.164,65.671a1.607,1.607,0,0,0-1.611.1l-5,3.377a.733.733,0,0,0-.191,1.044.791.791,0,0,0,1.083.185l5-3.375V79l-5-3.37a.8.8,0,0,0-1.083.185.733.733,0,0,0,.191,1.044l5,3.374a1.606,1.606,0,0,0,1.612.1A1.553,1.553,0,0,0,28,78.958V67A1.489,1.489,0,0,0,27.164,65.671ZM15.556,64H3.111A3.057,3.057,0,0,0,0,67V79a3.057,3.057,0,0,0,3.111,3H15.556a3.057,3.057,0,0,0,3.111-3V67A3.058,3.058,0,0,0,15.556,64Zm1.556,15a1.531,1.531,0,0,1-1.556,1.5H3.111A1.531,1.531,0,0,1,1.556,79V67a1.531,1.531,0,0,1,1.556-1.5H15.556A1.531,1.531,0,0,1,17.111,67Z" transform="translate(0 -64)" fill="#1d2a45"/>
</svg>
