<svg xmlns="http://www.w3.org/2000/svg" width="28" height="22" viewBox="0 0 28 22">
  <path id="warehouse" d="M14.271,4.159a.7.7,0,0,0-.543,0L2.257,8.929A1.343,1.343,0,0,0,1.4,10.2V24.032a.7.7,0,0,1-1.4,0V10.2A2.763,2.763,0,0,1,1.713,7.655l11.473-4.77a2.119,2.119,0,0,1,1.628,0l11.471,4.77A2.76,2.76,0,0,1,28,10.2V24.032a.7.7,0,0,1-1.4,0V10.2a1.341,1.341,0,0,0-.858-1.274ZM4.2,12.282A1.39,1.39,0,0,1,5.6,10.9H22.4a1.39,1.39,0,0,1,1.4,1.382v11.75a.7.7,0,0,1-1.4,0V12.282H5.6v11.75a.7.7,0,0,1-1.4,0ZM21,20.576v2.074a2.087,2.087,0,0,1-2.1,2.074H9.1A2.087,2.087,0,0,1,7,22.649V15.7a2.113,2.113,0,0,1,2.1-2.074h4.2A2.113,2.113,0,0,1,15.4,15.7v2.8h3.5A2.087,2.087,0,0,1,21,20.576Zm-5.6-.691V23.34h3.5a.7.7,0,0,0,.7-.691V20.576a.7.7,0,0,0-.7-.691ZM14,23.34V19.885H8.4v2.765a.7.7,0,0,0,.7.691Zm-.7-8.333H9.1a.724.724,0,0,0-.7.691v2.8H14V15.7A.724.724,0,0,0,13.3,15.007Z" transform="translate(0 -2.723)" fill="#1d2a45"/>
</svg>
